<svg width="210" height="210" viewBox="0 0 210 210" fill="none" xmlns="http://www.w3.org/2000/svg">
	<path d="M30.3628 29.4408C31.5573 11.4412 51.438 1.14442 66.8286 10.5541L181.505 80.6664C198.993 91.3584 195.895 117.637 176.4 123.969L148.691 132.968L161.985 159.716C168.275 172.373 162.829 187.724 149.969 193.588L132.503 201.553C120.432 207.057 106.164 202.174 99.9966 190.427L84.4673 160.849L58.5181 176.707C41.9122 186.855 20.7678 174.057 22.0562 154.639L30.3628 29.4408Z" fill="#047CFE"/>
	<ellipse cx="71.5" cy="87" rx="8.5" ry="12" fill="white"/>
	<path d="M126 87C126 93.6274 122.194 99 117.5 99C112.806 99 109 93.6274 109 87C109 80.3726 112.806 75 117.5 75C122.194 75 126 80.3726 126 87Z" fill="white"/>
	<path d="M75.9225 109.59C77.5913 107.644 80.5555 107.505 82.3982 109.289L87.4331 114.161C91.4618 118.06 97.7722 118.323 102.111 114.773L107.853 110.075C109.621 108.629 112.209 108.81 113.758 110.488C115.492 112.367 115.222 115.334 113.176 116.868L107.624 121.032C107.208 121.344 106.771 121.624 106.314 121.871L104.686 122.753C98.6559 126.02 91.3723 125.969 85.3885 122.618L83.4325 121.522C82.8122 121.175 82.2263 120.769 81.6825 120.312L76.435 115.893C74.5428 114.299 74.3126 111.469 75.9225 109.59Z" fill="white"/>
</svg>
