<svg width="16" height="15" viewBox="0 0 16 15" fill="none" xmlns="http://www.w3.org/2000/svg">
<path d="M15.4336 8.19531C15.6445 7.96094 15.75 7.69141 15.75 7.38672C15.75 7.08203 15.6445 6.8125 15.4336 6.57812L9.80859 0.953125C9.57422 0.742191 9.30469 0.636719 9 0.636719C8.69531 0.636719 8.42578 0.742191 8.19141 0.953125C7.98047 1.18752 7.875 1.45705 7.875 1.76172C7.875 2.06639 7.98047 2.33591 8.19141 2.57031L11.918 6.26172H1.125C0.796875 6.26172 0.527344 6.36719 0.316406 6.57812C0.105469 6.78906 0 7.05859 0 7.38672C0 7.71485 0.105469 7.98438 0.316406 8.19531C0.527344 8.40625 0.796875 8.51172 1.125 8.51172H11.918L8.19141 12.2031C7.98047 12.4375 7.875 12.707 7.875 13.0117C7.875 13.3164 7.98047 13.5859 8.19141 13.8203C8.42578 14.0312 8.69531 14.1367 9 14.1367C9.30469 14.1367 9.57422 14.0312 9.80859 13.8203L15.4336 8.19531Z" fill="#007AFF"/>
</svg>
