<svg xmlns="http://www.w3.org/2000/svg" fill="none" version="1.1" width="14" height="16" viewBox="0 0 14 16"><defs><clipPath id="master_svg0_137_3346"><rect x="0" y="0" width="14" height="16" rx="0"/></clipPath></defs><g clip-path="url(#master_svg0_137_3346)"><g transform="matrix(1,0,0,-1,0,26.6875)"><g><path d="M6.28125,13.625Q6.59375,13.34375,7,13.34375Q7.40625,13.34375,7.71875,13.625L13.7188,19.625Q14,19.9375,14,20.34375Q14,20.75,13.7188,21.0625Q13.4062,21.34375,13,21.34375Q12.5938,21.34375,12.2812,21.0625L7,15.75L1.71875,21.0625Q1.40625,21.34375,1,21.34375Q0.59375,21.34375,0.28125,21.0625Q0,20.75,0,20.34375Q0,19.9375,0.28125,19.625L6.28125,13.625Z" fill="#9CA3AF" fill-opacity="1" style="mix-blend-mode:passthrough"/></g></g></g></svg>