<svg xmlns="http://www.w3.org/2000/svg" fill="none" version="1.1" width="10" height="10" viewBox="0. 0. 11 11"><g transform="matrix(1,0,0,-1,0,20)"><path d="M9.71875,18.28125Q10,18.59375,10,19Q10,19.40625,9.71875,19.71875Q9.40625,20,9,20Q8.59375,20,8.28125,19.71875L5,16.40625L1.71875,19.71875Q1.40625,20,1,20Q0.59375,20,0.28125,19.71875Q0,19.40625,0,19Q0,18.59375,0.28125,18.28125L3.59375,15L0.28125,11.71875Q0,11.40625,0,11Q0,10.59375,0.28125,10.28125Q0.59375,10,1,10Q1.40625,10,1.71875,10.28125L5,13.59375L8.28125,10.28125Q8.59375,10,9,10Q9.40625,10,9.71875,10.28125Q10,10.59375,10,11Q10,11.40625,9.71875,11.71875L6.40625,15L9.71875,18.28125Z" fill="#9CA3AF" fill-opacity="1" style="mix-blend-mode:passthrough"/></g></svg>