<svg width="240" height="240" viewBox="0 0 240 240" fill="none" xmlns="http://www.w3.org/2000/svg">
<path d="M35.0767 27.9936C36.2709 9.99373 56.1517 -0.303892 71.5425 9.10587L213.791 96.0756C231.278 106.768 228.18 133.047 208.685 139.378L169.934 151.963L186.77 185.839C193.06 198.497 187.616 213.848 174.755 219.712L148.361 231.747C136.289 237.252 122.02 232.368 115.853 220.621L96.5356 183.827L61.2319 205.402C44.6261 215.55 23.4817 202.753 24.77 183.334L35.0767 27.9936Z" fill="#047CFE"/>
<ellipse cx="81.7143" cy="99.4285" rx="9.71429" ry="13.7143" fill="white"/>
<path d="M144 99.4285C144 107.003 139.651 113.143 134.286 113.143C128.921 113.143 124.571 107.003 124.571 99.4285C124.571 91.8543 128.921 85.7142 134.286 85.7142C139.651 85.7142 144 91.8543 144 99.4285Z" fill="white"/>
<path d="M86.7687 125.246C88.6759 123.021 92.0636 122.863 94.1695 124.901L99.9237 130.47C104.528 134.926 111.74 135.226 116.699 131.169L123.261 125.8C125.281 124.147 128.239 124.354 130.009 126.272V126.272C131.991 128.419 131.682 131.81 129.344 133.563L122.999 138.322C122.524 138.678 122.024 138.999 121.502 139.281L118.258 141.039C112.227 144.305 104.944 144.254 98.9601 140.903L95.3516 138.883C94.6427 138.486 93.973 138.022 93.3515 137.499L87.3544 132.449C85.1919 130.628 84.9288 127.393 86.7687 125.246V125.246Z" fill="white"/>
</svg>
