<svg xmlns="http://www.w3.org/2000/svg" fill="none" version="1.1" width="18" height="13.767857551574707" viewBox="0 0 18 13.767857551574707"><g transform="matrix(1,0,0,-1,0,27.535715103149414)"><path d="M7.8125,13.785714651574708Q8.0625,13.723214651574708,8.28125,13.879464551574706Q8.5,14.004464551574706,8.5,14.285714551574706L8.5,26.066957551574706Q8.5,26.285757551574704,8.34375,26.410757551574704Q7.875,26.816957551574706,6.875,27.160757551574704Q5.875,27.504457551574706,4.5,27.535757551574704Q3.3125,27.535757551574704,2.28125,27.285757551574704Q1.25,27.035757551574704,0.5625,26.785757551574704Q0.03125,26.535757551574704,0,25.910757551574704L0,14.348214551574706Q0,14.066964551574706,0.25,13.910714551574706Q0.46875,13.754464651574708,0.75,13.816964651574708Q1.53125,14.098214551574706,2.53125,14.316964551574706Q3.5625,14.535714551574706,4.5,14.535714551574706Q5.3125,14.504464551574706,6.25,14.285714551574706Q7.15625,14.035714551574706,7.8125,13.785714651574708ZM10.1875,13.785714651574708Q10.8438,14.035714551574706,11.75,14.285714551574706Q12.6875,14.504464551574706,13.5,14.535714551574706Q14.4375,14.535714551574706,15.4688,14.316964551574706Q16.4688,14.098214551574706,17.25,13.816964651574708Q17.5312,13.754464651574708,17.75,13.910714551574706Q18,14.066964551574706,18,14.348214551574706L18,25.910757551574704Q17.9688,26.535757551574704,17.4375,26.785757551574704Q16.75,27.035757551574704,15.7188,27.285757551574704Q14.6875,27.535757551574704,13.5,27.535757551574704Q12.125,27.504457551574706,11.125,27.160757551574704Q10.125,26.816957551574706,9.65625,26.410757551574704Q9.5,26.285757551574704,9.5,26.066957551574706L9.5,14.285714551574706Q9.5,14.004464551574706,9.71875,13.879464551574706Q9.9375,13.723214651574708,10.1875,13.785714651574708Z" fill="#007AFF" fill-opacity="1" style="mix-blend-mode:passthrough"/></g></svg>