<svg xmlns="http://www.w3.org/2000/svg" fill="none" version="1.1" width="16" height="16" viewBox="0 0 16 16"><g transform="matrix(1,0,0,-1,0,32)"><path d="M8,32Q9.28125,31.9688,10.125,31.125Q10.9688,30.2812,11,29L11,28.875Q11,28.5,10.75,28.25Q10.5,28,10.125,28L5.90625,28Q5.5,28,5.25,28.25Q5,28.5,5,28.875L5,29Q5.03125,30.2812,5.875,31.125Q6.71875,31.9688,8,32ZM1.28125,28.7188Q1.59375,29,2,29Q2.40625,29,2.71875,28.7188L4.71875,26.7188Q4.75,26.6875,4.78125,26.6562L4.78125,26.625Q5.4375,27,6.25,27L9.75,27Q10.5625,27,11.25,26.625Q11.25,26.6875,11.2812,26.7188L13.2812,28.7188Q13.5938,29,14,29Q14.4062,29,14.7188,28.7188Q15,28.4062,15,28Q15,27.5938,14.7188,27.2812L12.7188,25.28125Q12.6875,25.25,12.6562,25.21875Q12.9375,24.65625,13,24L15,24Q15.4375,24,15.7188,23.71875Q16,23.4375,16,23Q16,22.5625,15.7188,22.28125Q15.4375,22,15,22L13,22Q13,20.84375,12.5312,19.84375Q12.625,19.78125,12.7188,19.71875L14.7188,17.71875Q15,17.40625,15,17Q15,16.59375,14.7188,16.28125Q14.4062,16,14,16Q13.5938,16,13.2812,16.28125L11.3125,18.25Q10.1562,17.21875,8.5,17.03125L8.5,24.5Q8.46875,24.96875,8,25Q7.53125,24.96875,7.5,24.5L7.5,17.03125Q5.84375,17.21875,4.6875,18.25L2.71875,16.28125Q2.40625,16,2,16Q1.59375,16,1.28125,16.28125Q1,16.59375,1,17Q1,17.40625,1.28125,17.71875L3.28125,19.71875Q3.375,19.78125,3.46875,19.84375Q3,20.84375,3,22L1,22Q0.5625,22,0.28125,22.28125Q0,22.5625,0,23Q0,23.4375,0.28125,23.71875Q0.5625,24,1,24L3,24Q3.0625,24.65625,3.34375,25.21875Q3.3125,25.25,3.28125,25.28125L1.28125,27.2812Q1,27.5938,1,28Q1,28.4062,1.28125,28.7188Z" fill="#4B5563" fill-opacity="1" style="mix-blend-mode:passthrough"/></g></svg>