<svg xmlns="http://www.w3.org/2000/svg" fill="none" version="1.1" width="16" height="16" viewBox="0 0 16 16"><g transform="matrix(1,0,0,-1,0,32)"><g><path d="M9,31Q9,31.4375,8.71875,31.7188Q8.4375,32,8,32Q7.5625,32,7.28125,31.7188Q7,31.4375,7,31L7,23.40625L4.71875,25.71875Q4.40625,26,4,26Q3.59375,26,3.28125,25.71875Q3,25.40625,3,25Q3,24.59375,3.28125,24.28125L7.28125,20.28125Q7.59375,20,8,20Q8.40625,20,8.71875,20.28125L12.7188,24.28125Q13,24.59375,13,25Q13,25.40625,12.7188,25.71875Q12.4062,26,12,26Q11.5938,26,11.2812,25.71875L9,23.40625L9,31ZM2,21Q1.15625,20.96875,0.59375,20.40625Q0.03125,19.84375,0,19L0,18Q0.03125,17.15625,0.59375,16.59375Q1.15625,16.03125,2,16L14,16Q14.8438,16.03125,15.4062,16.59375Q15.9688,17.15625,16,18L16,19Q15.9688,19.84375,15.4062,20.40625Q14.8438,20.96875,14,21L10.8438,21L9.40625,19.59375Q8.78125,19,8,19Q7.1875,19,6.59375,19.59375L5.1875,21L2,21ZM13.5,19.25Q14.1875,19.1875,14.25,18.5Q14.1875,17.8125,13.5,17.75Q12.8125,17.8125,12.75,18.5Q12.8125,19.1875,13.5,19.25Z" fill="#007AFF" fill-opacity="1" style="mix-blend-mode:passthrough"/></g></g></svg>