<svg xmlns="http://www.w3.org/2000/svg" fill="none" version="1.1" width="12" height="16" viewBox="0 0 12 16"><g transform="matrix(1,0,0,-1,0,32)"><g><path d="M2,32Q1.15625,31.9688,0.59375,31.4062Q0.03125,30.8438,0,30L0,18Q0.03125,17.15625,0.59375,16.59375Q1.15625,16.03125,2,16L10,16Q10.8438,16.03125,11.4062,16.59375Q11.9688,17.15625,12,18L12,27L8,27Q7.5625,27,7.28125,27.2812Q7,27.5625,7,28L7,32L2,32ZM8,32L8,28L8,32L8,28L12,28L8,32ZM4.875,24.1875L6,22.5625L4.875,24.1875L6,22.5625L7.125,24.1875Q7.59375,24.71875,8.1875,24.375Q8.6875,23.90625,8.375,23.3125L6.90625,21.25L8.375,19.1875Q8.71875,18.59375,8.1875,18.125Q7.59375,17.78125,7.125,18.3125L6,19.9375L4.875,18.3125Q4.40625,17.78125,3.8125,18.125Q3.3125,18.59375,3.625,19.1875L5.09375,21.25L3.625,23.3125Q3.28125,23.90625,3.8125,24.375Q4.40625,24.71875,4.875,24.1875Z" fill="#FFFFFF" fill-opacity="1" style="mix-blend-mode:passthrough"/></g></g></svg>