<svg xmlns="http://www.w3.org/2000/svg" fill="none" version="1.1" width="11.80224609375" height="16" viewBox="0 0 11.80224609375 16"><g transform="matrix(1,0,0,-1,0,32)"><g><path class="pin-path" d="M0.978022,31Q0.978022,31.4375,1.25495,31.7188Q1.53187,32,1.96264,32L9.83956,32Q10.2703,32,10.5473,31.7188Q10.8242,31.4375,10.8242,31Q10.8242,30.5625,10.5473,30.2812Q10.2703,30,9.83956,30L8.94725,30L9.28571,25.375Q11.0396,24.40625,11.7165,22.40625L11.7473,22.3125Q11.9011,21.84375,11.6242,21.40625Q11.3165,21,10.8242,21L0.978022,21Q0.485714,21,0.178022,21.40625Q-0.0989011,21.84375,0.0549451,22.3125L0.0857143,22.40625Q0.762637,24.40625,2.51648,25.375L2.88571,30L1.96264,30Q1.53187,30,1.25495,30.2812Q0.978022,30.5625,0.978022,31ZM4.91648,20L6.88571,20L4.91648,20L6.88571,20L6.88571,17Q6.88571,16.5625,6.60879,16.28125Q6.33187,16,5.9011,16Q5.47033,16,5.19341,16.28125Q4.91648,16.5625,4.91648,17L4.91648,20Z" fill="current" fill-opacity="1" style="mix-blend-mode:passthrough"/></g></g></svg>