<svg width="16" height="16" viewBox="0 0 16 16" fill="none" xmlns="http://www.w3.org/2000/svg">
<path d="M13.7069 6.79266L8.70688 1.79266C8.51936 1.60527 8.26511 1.5 8.00001 1.5C7.7349 1.5 7.48065 1.60527 7.29313 1.79266L2.29313 6.79266C2.19982 6.88528 2.12586 6.99552 2.07553 7.11698C2.02521 7.23844 1.99954 7.36869 2.00001 7.50016V13.5002C2.00001 13.6328 2.05268 13.7599 2.14645 13.8537C2.24022 13.9475 2.3674 14.0002 2.50001 14.0002H6.50001C6.63261 14.0002 6.75979 13.9475 6.85356 13.8537C6.94733 13.7599 7.00001 13.6328 7.00001 13.5002V10.0002H9.00001V13.5002C9.00001 13.6328 9.05268 13.7599 9.14645 13.8537C9.24022 13.9475 9.3674 14.0002 9.50001 14.0002H13.5C13.6326 14.0002 13.7598 13.9475 13.8536 13.8537C13.9473 13.7599 14 13.6328 14 13.5002V7.50016C14.0005 7.36869 13.9748 7.23844 13.9245 7.11698C13.8742 6.99552 13.8002 6.88528 13.7069 6.79266ZM13 13.0002H10V9.50016C10 9.36755 9.94733 9.24038 9.85356 9.14661C9.75979 9.05284 9.63261 9.00016 9.50001 9.00016H6.50001C6.3674 9.00016 6.24022 9.05284 6.14645 9.14661C6.05268 9.24038 6.00001 9.36755 6.00001 9.50016V13.0002H3.00001V7.50016L8.00001 2.50016L13 7.50016V13.0002Z" fill="#D1D5DB"/>
</svg>
