<svg width="23" height="23" viewBox="0 0 23 23" fill="none" xmlns="http://www.w3.org/2000/svg">
<path d="M10.3669 11.3356L7.94579 9.04443C7.8086 8.9146 7.73766 8.75936 7.733 8.57871C7.72833 8.39807 7.79059 8.23915 7.9198 8.10198C8.049 7.9648 8.20424 7.89386 8.38551 7.88918C8.56678 7.88449 8.7257 7.94676 8.86225 8.07598L11.2834 10.3671L13.5745 7.94599C13.7043 7.80879 13.8596 7.73786 14.0402 7.73319C14.2209 7.72852 14.3798 7.79079 14.517 7.91999C14.6541 8.04919 14.7252 8.20458 14.7302 8.38616C14.7352 8.56774 14.6728 8.7265 14.5429 8.86244L12.2518 11.2836L14.6729 13.5747C14.8101 13.7045 14.8812 13.8599 14.8862 14.0409C14.8912 14.2218 14.8288 14.3806 14.6989 14.5171C14.5691 14.6537 14.4137 14.7248 14.2328 14.7304C14.0518 14.736 13.8931 14.6736 13.7565 14.5431L11.3354 12.252L9.04423 14.6731C8.9144 14.8103 8.75901 14.8814 8.57806 14.8864C8.39711 14.8914 8.23835 14.829 8.10178 14.6991C7.96521 14.5693 7.89428 14.414 7.88898 14.2334C7.88369 14.0528 7.94595 13.8939 8.07578 13.7567L10.3669 11.3356Z" fill="#6B7280"/>
</svg>
