<svg xmlns="http://www.w3.org/2000/svg" xmlns:xlink="http://www.w3.org/1999/xlink" fill="none" version="1.1" width="368"
     height="211" viewBox="0 0 368 211">
    <defs>
        <clipPath id="master_svg0_55_0645">
            <rect x="0" y="0" width="368" height="211" rx="0"/>
        </clipPath>
    </defs>
    <g clip-path="url(#master_svg0_55_0645)">
        <g>
            <path d="M205.00009375,-2.6718139650716566e-7C208.31009375,2.0117597328186037,209.55609375,3.2958797328186034,210.53509375,7.054689732818604C210.84809375,10.341459732818603,210.68209375,12.965959732818604,208.83309375,15.768359732818602C208.30409375,16.343659732818605,207.77509375,16.918959732818603,207.23009375,17.511759732818604C206.59809375,18.200359732818605,205.96509375,18.888959732818602,205.31309375,19.598359732818604C200.46309375,24.633759732818604,195.52509375,29.576259732818603,190.56209375,34.4999597328186C189.43809375,35.6195597328186,188.31309375,36.739359732818606,187.18909375,37.859359732818604C184.46209375,40.5756597328186,181.73209375,43.2886597328186,179.00009375,45.9999597328186C180.39109375,46.002159732818605,180.39109375,46.002159732818605,181.81009375,46.0044597328186C204.36909375,46.0410597328186,226.92809375,46.10045973281861,249.48709375,46.183859732818604C260.39709375,46.22375973281861,271.30609375,46.256059732818606,282.21609375,46.2709597328186C291.72409375,46.2839597328186,301.23209375,46.3109597328186,310.74009375,46.354659732818604C315.77509375,46.3772597328186,320.81009375,46.3928597328186,325.84509375,46.3918597328186C330.58409375,46.3911597328186,335.32309375,46.409059732818605,340.06309375,46.441159732818605C341.80209375,46.4496597328186,343.54109375,46.4513597328186,345.28009375,46.4457597328186C347.65609375,46.4391597328186,350.03109375,46.45705973281861,352.40709375,46.4810597328186C353.09409375,46.473259732818605,353.78009375,46.4654597328186,354.48809375,46.457459732818606C359.40009375,46.5450597328186,362.22409375,47.9157597328186,366.00009375,50.9999597328186C368.59609375,56.0343597328186,368.30909375,61.4228597328186,368.32209375,66.9650597328186C368.33209375,67.9527597328186,368.34209375,68.94045973281861,368.35209375,69.9581597328186C368.38109375,73.2130597328186,368.39509375,76.4676597328186,368.40609375,79.7226597328186C368.41809375,81.9889597328186,368.42909375,84.2552597328186,368.44109375,86.5215597328186C368.46209375,91.2667597328186,368.47309375,96.0118597328186,368.48009375,100.75715973281861C368.49109375,106.8391597328186,368.53909375,112.92115973281861,368.59609375,119.0031597328186C368.63409375,123.6811597328186,368.64409375,128.3581597328186,368.64709375,133.0371597328186C368.65309375,135.2791597328186,368.66909375,137.5221597328186,368.69509375,139.7651597328186C368.72909375,142.8981597328186,368.72609375,146.03015973281862,368.71309375,149.1641597328186C368.73109375,150.0911597328186,368.75009375,151.0171597328186,368.76909375,151.9711597328186C368.68909375,158.0931597328186,368.68909375,158.0931597328186,366.72209375,160.6811597328186C361.97909375,164.7991597328186,357.71109375,165.1501597328186,351.73009375,165.1581597328186C350.98409375,165.1631597328186,350.23809375,165.1681597328186,349.47009375,165.1731597328186C346.96409375,165.1881597328186,344.45809375,165.1971597328186,341.95209375,165.2051597328186C340.15909375,165.2151597328186,338.36509375,165.2251597328186,336.57209375,165.2351597328186C331.69609375,165.26215973281862,326.82009375,165.2831597328186,321.94509375,165.3031597328186C316.85209375,165.3251597328186,311.75909375,165.3521597328186,306.66609375,165.3791597328186C297.01909375,165.4291597328186,287.37109375,165.4741597328186,277.72409375,165.5171597328186C266.74209375,165.5671597328186,255.76109375,165.6221597328186,244.77909375,165.6771597328186C222.18609375,165.7911597328186,199.59309375,165.8981597328186,177.00009375,166.00015973281862C179.40009375,168.2451597328186,181.80209375,170.4901597328186,184.20309375,172.7341597328186C184.87909375,173.3661597328186,185.55409375,173.9981597328186,186.25009375,174.6501597328186C194.24609375,182.2911597328186,194.24609375,182.2911597328186,203.00009375,189.00015973281862C203.00009375,189.6601597328186,203.00009375,190.3201597328186,203.00009375,191.00015973281862C203.59809375,191.26815973281862,204.19609375,191.5361597328186,204.81209375,191.8121597328186C207.17509375,193.09515973281862,208.45509375,193.7931597328186,210.00009375,196.00015973281862C211.03609375,200.9421597328186,211.65609375,204.4851597328186,209.00009375,209.00015973281862C204.22609375,212.1821597328186,199.58009375,211.7331597328186,194.00009375,211.00015973281862C189.29009375,209.4041597328186,184.95609375,207.1791597328186,180.56209375,204.87515973281862C179.29709375,204.2351597328186,178.03109375,203.5981597328186,176.76409375,202.9631597328186C174.13809375,201.6451597328186,171.51909375,200.3171597328186,168.90309375,198.9801597328186C162.79609375,195.8681597328186,156.61509375,192.9081597328186,150.43709375,189.9371597328186C149.21709375,189.3481597328186,147.99809375,188.7581597328186,146.77809375,188.1681597328186C138.85009375,184.3371597328186,130.87509375,180.6151597328186,122.87509375,176.9371597328186C109.70209375,170.8771597328186,96.68949375,164.50015973281862,83.67259375,158.1121597328186C72.62279375,152.6921597328186,61.55869375,147.32715973281861,50.37499375,142.1871597328186C40.61929375,137.7031597328186,30.91279375,133.1261597328186,21.24399375,128.45815973281861C19.76289375,127.74315973281861,18.28109375,127.0301597328186,16.79849375,126.3181597328186C14.73849375,125.3281597328186,12.68139375,124.3331597328186,10.62499375,123.3361597328186C9.44159375,122.7641597328186,8.25828375,122.19215973281861,7.03906375,121.6031597328186C4.43046375,120.2271597328186,2.17585375,118.9841597328186,-2.500000000349445e-7,117.0001597328186C-0.56640625,114.00415973281861,-0.56640625,114.00415973281861,-0.56250005,110.5621597328186C-0.58441165,109.4291597328186,-0.60632325,108.29615973281861,-0.62890625,107.12915973281861C0.19396975000000005,103.0351597328186,1.64523375,102.3801597328186,5.00000375,100.0001597328186C6.81771375,98.9548597328186,8.66511375,97.9600597328186,10.53519375,97.0117597328186C12.12169375,96.1986597328186,12.12169375,96.1986597328186,13.74019375,95.3691597328186C14.83659375,94.81415973281861,15.932893750000002,94.2592597328186,17.06249375,93.68745973281861C24.62089375,89.8467597328186,32.02759375,85.86595973281861,39.32689375,81.5515597328186C42.61639375,79.6422597328186,45.94879375,77.9640597328186,49.37499375,76.31245973281861C56.99319375,72.5861597328186,64.41149375,68.5279597328186,71.83839375,64.4362597328186C78.06399375,61.019759732818606,84.35069375,57.7811597328186,90.72659375,54.656259732818604C94.25479375,52.9140597328186,97.65499375,51.0712597328186,101.00009375,48.9999597328186C104.85309375,46.6187597328186,108.81009375,44.5530597328186,112.87509375,42.5624597328186C121.92009375,38.129759732818606,130.76809375,33.337159732818606,139.62409375,28.543259732818605C146.57709375,24.791059732818603,153.58009375,21.195959732818604,160.65709375,17.685259732818604C165.62909375,15.178959732818603,170.50309375,12.507559732818603,175.37509375,9.812459732818603C178.91009375,7.861759732818603,182.45009375,5.922339732818603,186.00009375,3.999999732818604C186.74009375,3.5932197328186035,187.48009375,3.1864397328186036,188.24209375,2.7673297328186037C193.89909375,-0.2319702671813965,198.59309375,-1.1212352671813965,205.00009375,-2.6718139650716566e-7Z"
                  fill="#047CFE" fill-opacity="1" style="mix-blend-mode:passthrough"/>
        </g>
        <g>
            <path d="M203,87.9999993491211C206.439,90.4325253491211,207.2834,94.12175534912109,208.4805,97.9687953491211C208.807,98.9837953491211,208.807,98.9837953491211,209.1402,100.0193953491211C209.5974,101.44689534912109,210.0502,102.8758953491211,210.4988,104.3061953491211C211.186,106.4952953491211,211.8877,108.6794953491211,212.5918,110.8632953491211C213.0347,112.2522953491211,213.4768,113.6416953491211,213.918,115.0312953491211C214.1273,115.68439534912109,214.3366,116.3375953491211,214.5523,117.01059534912109C215.4229,119.80129534912109,216,122.0552953491211,216,124.9999953491211C212.7,124.9999953491211,209.4,124.9999953491211,206,124.9999953491211C205.67000000000002,122.68999534912109,205.34,120.37999534912109,205,117.9999953491211C201.7,117.9999953491211,198.4,117.9999953491211,195,117.9999953491211C194.8556,118.78379534912109,194.7113,119.56749534912109,194.5625,120.3749953491211C194,122.9999953491211,194,122.9999953491211,193,124.9999953491211C190.03,124.9999953491211,187.06,124.9999953491211,184,124.9999953491211C184.555542,117.3181953491211,186.93091,110.39539534912109,189.375,103.1249953491211C189.77461,101.8900953491211,190.17422,100.6551953491211,190.58594,99.3827953491211C190.97781,98.2071953491211,191.36969,97.0315653491211,191.77344,95.82031534912109C192.3059,94.2156753491211,192.3059,94.2156753491211,192.84912,92.5786153491211C195.0055,87.74716914912109,198.1409,87.4938403491211,203,87.9999993491211Z"
                  fill="#F5F9FF" fill-opacity="1" style="mix-blend-mode:passthrough"/>
        </g>
        <g>
            <path d="M292.0624911132812,88.9375053491211C293.9999911132812,90.0000053491211,293.9999911132812,90.0000053491211,294.9999911132812,91.0000053491211C295.1249911132812,93.5000053491211,295.1249911132812,93.5000053491211,294.9999911132812,96.0000053491211C293.9999911132812,97.0000053491211,293.9999911132812,97.0000053491211,291.34769111328126,97.02734534912109C289.1600911132812,96.9675153491211,286.9725911132812,96.90502534912109,284.78519111328126,96.83984534912109C281.85819111328124,96.6982853491211,281.85819111328124,96.6982853491211,279.9999911132812,98.9999953491211C279.82799111328126,101.54229534912109,279.76739111328123,103.9614953491211,279.8124911132812,106.4999953491211C279.81349111328126,107.5344953491211,279.81349111328126,107.5344953491211,279.81449111328124,108.58979534912109C279.79639111328123,112.42239534912109,279.79639111328123,112.42239534912109,280.9999911132812,115.9999953491211C281.91519111328125,115.97679534912109,282.83049111328125,115.95359534912109,283.77339111328126,115.92969534912109C284.9619911132813,115.91159534912109,286.15049111328125,115.89359534912109,287.3749911132812,115.8749953491211C288.55839111328123,115.85179534912109,289.74169111328126,115.82859534912109,290.96089111328126,115.80469534912109C293.9999911132812,115.9999953491211,293.9999911132812,115.9999953491211,295.9999911132812,117.9999953491211C296.0624911132812,120.4374953491211,296.0624911132812,120.4374953491211,294.9999911132812,122.9999953491211C290.17289111328125,125.85679534912109,285.57599111328125,126.97499534912109,279.9999911132812,125.9999953491211C276.21287111328127,124.6619953491211,273.5835011132813,122.8827953491211,271.33203111328123,119.4765953491211C269.5750791132813,114.8909953491211,269.48567961328126,110.8690953491211,269.50000001328124,105.9999953491211C269.47164151328127,105.1233953491211,269.44328121328124,104.24689534912109,269.41406250028126,103.3437953491211C269.40109061328127,99.0369953491211,269.54915411328125,95.95283534912109,272.28125111328126,92.5000053491211C278.12646111328127,87.12509734912109,284.50559111328124,86.6241553491211,292.0624911132812,88.9375053491211Z"
                  fill="#F6FAFF" fill-opacity="1" style="mix-blend-mode:passthrough"/>
        </g>
        <g>
            <path d="M301.0000091796875,88C307.5769391796875,88.576923,307.5769391796875,88.576923,309.0000591796875,90C309.0875591796875,91.99965,309.1069591796875,94.00236,309.0976591796875,96.00391C309.0944591796875,97.21885,309.0912591796875,98.4338,309.0878591796875,99.6855C309.0795591796875,100.9649,309.0711591796875,102.2443,309.0625591796875,103.5625C309.0579591796875,104.8458,309.0534591796875,106.129,309.0488591796875,107.4512C309.0370591796875,110.63419999999999,309.0205591796875,113.8171,309.0000591796875,117C309.8546591796875,116.9884,310.7093591796875,116.9768,311.5898591796875,116.9648C312.6945591796875,116.9558,313.7993591796875,116.9468,314.9375591796875,116.9375C316.0396591796875,116.9259,317.1418591796875,116.9143,318.2773591796875,116.9023C321.0000591796875,117,321.0000591796875,117,322.0000591796875,118C322.1250591796875,121,322.1250591796875,121,322.0000591796875,124C319.7588591796875,126.24119999999999,314.6340591796875,125.2325,311.6250591796875,125.25C310.74845917968753,125.2706,309.8718591796875,125.2912,308.9687591796875,125.3125C307.7041891796875,125.3202,307.7041891796875,125.3202,306.4140791796875,125.3281C305.2531991796875,125.3421,305.2531991796875,125.3421,304.0688591796875,125.35640000000001C302.0000091796875,125,302.0000091796875,125,300.2468391796875,123.93090000000001C298.3142821796875,120.938,298.6287190796875,118.3046,298.6367323796875,114.7773C298.6362337796875,114.0761,298.6357352796875,113.3748,298.6352216796875,112.6522C298.6375593796875,111.172,298.6472699796875,109.6918,298.6638319796875,108.21170000000001C298.6874646796875,105.9422,298.6843862796875,103.6739,298.6777479796875,101.4043C298.7208791796875,90.27913,298.7208791796875,90.27913,301.0000091796875,88Z"
                  fill="#F4F9FF" fill-opacity="1" style="mix-blend-mode:passthrough"/>
        </g>
        <g>
            <path d="M220.99999392089845,88C227.57692392089842,88.576923,227.57692392089842,88.576923,229.00004392089843,90C229.08754392089844,91.99965,229.10694392089843,94.00236,229.09764392089843,96.00391C229.09444392089844,97.21885,229.09124392089845,98.4338,229.08784392089845,99.6855C229.07954392089843,100.9649,229.07114392089844,102.2443,229.06254392089843,103.5625C229.05794392089842,104.8458,229.05344392089845,106.129,229.04884392089843,107.4512C229.03704392089844,110.63419999999999,229.02054392089843,113.8171,229.00004392089843,117C229.85464392089844,116.9884,230.70934392089845,116.9768,231.58984392089843,116.9648C232.69454392089844,116.9558,233.79934392089842,116.9468,234.93754392089843,116.9375C236.03964392089844,116.9259,237.14184392089845,116.9143,238.27734392089843,116.9023C241.00004392089843,117,241.00004392089843,117,242.00004392089843,118C242.12504392089843,121,242.12504392089843,121,242.00004392089843,124C239.75884392089844,126.24119999999999,234.63404392089845,125.2325,231.62504392089843,125.25C230.74844392089844,125.2706,229.87184392089844,125.2912,228.96874392089845,125.3125C227.70417392089843,125.3202,227.70417392089843,125.3202,226.41406392089843,125.3281C225.25318392089844,125.3421,225.25318392089844,125.3421,224.06884392089844,125.35640000000001C221.99999392089845,125,221.99999392089845,125,220.24682392089844,123.93090000000001C218.31426692089843,120.938,218.62870382089844,118.3046,218.63671712089842,114.7773C218.63621852089844,114.0761,218.63572002089845,113.3748,218.63520642089844,112.6522C218.63754412089844,111.172,218.64725472089845,109.6918,218.66381672089844,108.21170000000001C218.68744942089845,105.9422,218.68437102089842,103.6739,218.67773272089843,101.4043C218.72086392089844,90.27913,218.72086392089844,90.27913,220.99999392089845,88Z"
                  fill="#F5FAFF" fill-opacity="1" style="mix-blend-mode:passthrough"/>
        </g>
        <g>
            <path d="M249.49999392089845,87.75C251.99999392089845,88,251.99999392089845,88,253.99999392089845,90C254.22704392089844,92.70557,254.22704392089844,92.70557,254.19531392089843,96.10156C254.18564392089843,97.9191,254.18564392089843,97.9191,254.17578392089843,99.7734C254.15902392089845,101.0445,254.14226392089844,102.3155,254.12499392089845,103.625C254.11597392089843,104.9037,254.10695392089843,106.1825,254.09765392089844,107.5C254.07402392089844,110.6669,254.04107392089844,113.83330000000001,253.99999392089845,117C254.84304392089842,116.9768,255.68604392089844,116.9536,256.55464392089846,116.9297C258.19824392089845,116.9026,258.19824392089845,116.9026,259.87504392089846,116.875C260.9655439208984,116.8518,262.05604392089845,116.8286,263.17964392089846,116.8047C266.00004392089846,117,266.00004392089846,117,268.00004392089846,119C268.18754392089846,121.5625,268.18754392089846,121.5625,268.00004392089846,124C265.7588439208984,126.24119999999999,260.6340439208984,125.2325,257.62504392089846,125.25C256.74844392089847,125.2706,255.87184392089844,125.2912,254.96874392089845,125.3125C253.70417392089843,125.3202,253.70417392089843,125.3202,252.41406392089843,125.3281C251.25318392089844,125.3421,251.25318392089844,125.3421,250.06884392089844,125.35640000000001C247.99999392089845,125,247.99999392089845,125,246.24682392089844,123.93090000000001C244.31426692089843,120.938,244.62870362089845,118.3046,244.63671682089844,114.7773C244.63621852089844,114.0761,244.63571982089843,113.3748,244.63520622089843,112.6522C244.63754372089844,111.172,244.64725442089843,109.6918,244.66381642089843,108.21170000000001C244.68744942089845,105.9422,244.68437102089842,103.6739,244.67773242089845,101.4043C244.72881892089845,88.227118,244.72881892089845,88.227118,249.49999392089845,87.75Z"
                  fill="#FBFDFF" fill-opacity="1" style="mix-blend-mode:passthrough"/>
        </g>
        <g>
            <path d="M329.5000091796875,87.75C332.0000091796875,88,332.0000091796875,88,334.0000091796875,90C334.2270591796875,92.70557,334.2270591796875,92.70557,334.1953291796875,96.10156C334.1856591796875,97.9191,334.1856591796875,97.9191,334.1757991796875,99.7734C334.1590391796875,101.0445,334.1422791796875,102.3155,334.1250091796875,103.625C334.1159891796875,104.9037,334.1069691796875,106.1825,334.0976691796875,107.5C334.0740391796875,110.6669,334.0410891796875,113.83330000000001,334.0000091796875,117C334.8430591796875,116.9768,335.6860591796875,116.9536,336.5546591796875,116.9297C338.1982591796875,116.9026,338.1982591796875,116.9026,339.8750591796875,116.875C340.9655591796875,116.8518,342.0560591796875,116.8286,343.1796591796875,116.8047C346.0000591796875,117,346.0000591796875,117,348.0000591796875,119C348.1875591796875,121.5625,348.1875591796875,121.5625,348.0000591796875,124C345.7588591796875,126.24119999999999,340.6340591796875,125.2325,337.6250591796875,125.25C336.74845917968753,125.2706,335.8718591796875,125.2912,334.9687591796875,125.3125C333.7041891796875,125.3202,333.7041891796875,125.3202,332.4140791796875,125.3281C331.2531991796875,125.3421,331.2531991796875,125.3421,330.0688591796875,125.35640000000001C328.0000091796875,125,328.0000091796875,125,326.2468391796875,123.93090000000001C324.3142821796875,120.938,324.6287188796875,118.3046,324.6367320796875,114.7773C324.6362337796875,114.0761,324.6357350796875,113.3748,324.6352214796875,112.6522C324.6375589796875,111.172,324.6472696796875,109.6918,324.6638316796875,108.21170000000001C324.6874646796875,105.9422,324.6843862796875,103.6739,324.6777476796875,101.4043C324.7288341796875,88.227118,324.7288341796875,88.227118,329.5000091796875,87.75Z"
                  fill="#FCFDFF" fill-opacity="1" style="mix-blend-mode:passthrough"/>
        </g>
        <g>
            <path d="M48.562498555908206,104.9375C49.6968785559082,104.958125,50.8312485559082,104.97875,51.999998555908206,105C51.999998555908206,107.64,51.999998555908206,110.28,51.999998555908206,113C46.249998555908206,113.125,46.249998555908206,113.125,43.999998555908206,112C43.9574551559082,110.00045,43.9591908459082,107.99958,43.999998555908206,106C44.999998555908206,105,44.999998555908206,105,48.562498555908206,104.9375Z"
                  fill="#F3F7FC" fill-opacity="1" style="mix-blend-mode:passthrough"/>
        </g>
        <g>
            <path d="M61,118C63.31,118,65.62,118,68,118C68,119.65,68,121.3,68,123C65.625,123.625,65.625,123.625,63,124C62.34,123.34,61.68,122.68,61,122C61,120.68,61,119.36,61,118Z"
                  fill="#E7F1FC" fill-opacity="1" style="mix-blend-mode:passthrough"/>
        </g>
        <g>
            <path d="M63,95C64.98,95,66.96,95,69,95C69,96.65,69,98.3,69,100C67.35,100,65.7,100,64,100C63.67,98.35,63.34,96.7,63,95Z"
                  fill="#F3F7FC" fill-opacity="1" style="mix-blend-mode:passthrough"/>
        </g>
        <g>
            <path d="M199,102C201.56546,104.56546,201.54046,106.47687,202,110C200.68,110,199.36,110,198,110C198.33,107.36,198.66,104.72,199,102Z"
                  fill="#258DFF" fill-opacity="1" style="mix-blend-mode:passthrough"/>
        </g>
    </g>
</svg>