<svg width="31" height="31" viewBox="0 0 31 31" fill="none" xmlns="http://www.w3.org/2000/svg">
<path d="M14.2084 16.7918H7.75005C7.38407 16.7918 7.07752 16.6678 6.83038 16.4198C6.58324 16.1718 6.45924 15.8653 6.45838 15.5002C6.45752 15.1351 6.58152 14.8285 6.83038 14.5805C7.07924 14.3325 7.3858 14.2085 7.75005 14.2085H14.2084V7.75017C14.2084 7.38419 14.3324 7.07764 14.5804 6.8305C14.8284 6.58336 15.1349 6.45936 15.5 6.4585C15.8652 6.45764 16.1721 6.58164 16.421 6.8305C16.6699 7.07936 16.7934 7.38592 16.7917 7.75017V14.2085H23.25C23.616 14.2085 23.923 14.3325 24.171 14.5805C24.419 14.8285 24.5426 15.1351 24.5417 15.5002C24.5409 15.8653 24.4169 16.1723 24.1697 16.4211C23.9226 16.67 23.616 16.7936 23.25 16.7918H16.7917V23.2502C16.7917 23.6161 16.6677 23.9231 16.4197 24.1711C16.1717 24.4191 15.8652 24.5427 15.5 24.5418C15.1349 24.541 14.8284 24.417 14.5804 24.1698C14.3324 23.9227 14.2084 23.6161 14.2084 23.2502V16.7918Z" fill="white"/>
</svg>
