<svg width="16" height="16" viewBox="0 0 16 16" fill="none" xmlns="http://www.w3.org/2000/svg">
<path d="M7.33335 8.66659H4.00001C3.81112 8.66659 3.6529 8.60259 3.52535 8.47459C3.39779 8.34659 3.33379 8.18837 3.33335 7.99992C3.3329 7.81148 3.3969 7.65325 3.52535 7.52525C3.65379 7.39725 3.81201 7.33325 4.00001 7.33325H7.33335V3.99992C7.33335 3.81103 7.39735 3.65281 7.52535 3.52525C7.65335 3.3977 7.81157 3.3337 8.00001 3.33325C8.18846 3.33281 8.3469 3.39681 8.47535 3.52525C8.60379 3.6537 8.66757 3.81192 8.66668 3.99992V7.33325H12C12.1889 7.33325 12.3473 7.39725 12.4753 7.52525C12.6033 7.65325 12.6671 7.81148 12.6667 7.99992C12.6662 8.18837 12.6022 8.34681 12.4747 8.47525C12.3471 8.6037 12.1889 8.66748 12 8.66659H8.66668V11.9999C8.66668 12.1888 8.60268 12.3473 8.47468 12.4753C8.34668 12.6033 8.18846 12.667 8.00001 12.6666C7.81157 12.6661 7.65335 12.6021 7.52535 12.4746C7.39735 12.347 7.33335 12.1888 7.33335 11.9999V8.66659Z" fill="#9CA3AF"/>
</svg>
