<svg xmlns="http://www.w3.org/2000/svg" fill="none" version="1.1" width="17" height="17" viewBox="0 0 17 14.5"><g transform="matrix(1,0,0,-1,0,28.015625)"><path d="M1.0474,27.8750125Q0.538991,28.2031125,0.137615,27.7656125Q-0.183486,27.246112500000002,0.244648,26.8359125L16.0856,14.1484375Q16.594,13.8203125,16.9954,14.2578125Q17.3165,14.7773435,16.8884,15.1875025L14.4801,17.1289025Q14.4801,17.1562525,14.4801,17.1562525Q14.6942,17.6757825,14.3463,18.0859325L14.159,18.3320325Q12.8746,19.8085925,12.8479,21.8046925L12.8479,22.324222499999998Q12.8211,23.9375025,11.8578,25.1133125Q10.9213,26.2890125,9.42278,26.6172125L9.42278,27.1367125Q9.42278,27.519512499999998,9.18196,27.7656125Q8.94113,28.0117125,8.56651,28.0117125Q8.1919,28.0117125,7.95107,27.7656125Q7.71025,27.519512499999998,7.71025,27.1367125L7.71025,26.6172125Q5.94419,26.207012499999998,4.98089,24.7031125L1.0474,27.8750125ZM10.8677,16.6367225L4.28517,21.9414025L10.8677,16.6367225L4.28517,21.9414025L4.28517,21.8046925Q4.25841,19.8085925,3.00077,18.3046925L2.7867,18.0859325Q2.43884,17.6757825,2.65291,17.1562525Q2.89373,16.6640625,3.4289,16.6367225L10.8677,16.6367225ZM9.77064,14.5312505Q10.2791,15.0507825,10.2791,15.7617225L8.56651,15.7617225L6.85398,15.7617225Q6.85398,15.0507825,7.36239,14.5312505Q7.8708,14.01171884,8.56651,14.01171884Q9.26223,14.01171884,9.77064,14.5312505Z" fill="#9CA3AF" fill-opacity="1" style="mix-blend-mode:passthrough"/></g></svg>