<svg width="50" height="50" viewBox="0 0 50 50" fill="none" xmlns="http://www.w3.org/2000/svg">
<circle cx="25" cy="25" r="25" fill="#7890CE"/>
<path d="M20.2339 29.5078L35.0317 17.4276C35.3809 17.1425 35.7883 17 36.2539 17C36.7196 17 37.127 17.1425 37.4762 17.4276C37.8254 17.7127 38 18.0515 38 18.4439C38 18.8364 37.8254 19.1747 37.4762 19.4588L21.4562 32.5724C21.107 32.8575 20.6995 33 20.2339 33C19.7683 33 19.3609 32.8575 19.0117 32.5724L11.5037 26.4432C11.1545 26.1581 10.9868 25.8198 11.0008 25.4283C11.0148 25.0368 11.1969 24.6981 11.5473 24.412C11.8977 24.126 12.3127 23.9835 12.7923 23.9844C13.2718 23.9854 13.6862 24.1279 14.0354 24.412L20.2339 29.5078Z" fill="white"/>
</svg>
