<svg width="12" height="12" viewBox="0 0 12 12" fill="none" xmlns="http://www.w3.org/2000/svg">
<path d="M4.50007 8.08504L2.76507 6.35004C2.67158 6.25655 2.54479 6.20403 2.41257 6.20403C2.28036 6.20403 2.15356 6.25655 2.06007 6.35004C1.96658 6.44353 1.91406 6.57033 1.91406 6.70254C1.91406 6.768 1.92696 6.83283 1.95201 6.89331C1.97706 6.95379 2.01378 7.00875 2.06007 7.05504L4.15007 9.14504C4.34507 9.34004 4.66007 9.34004 4.85507 9.14504L10.1451 3.85504C10.2386 3.76155 10.2911 3.63475 10.2911 3.50254C10.2911 3.37033 10.2386 3.24353 10.1451 3.15004C10.0516 3.05655 9.92479 3.00403 9.79257 3.00403C9.66036 3.00403 9.53356 3.05655 9.44007 3.15004L4.50007 8.08504Z" fill="#047CFE"/>
</svg>
