<svg width="24" height="24" viewBox="0 0 24 24" fill="none" xmlns="http://www.w3.org/2000/svg">
<path fill-rule="evenodd" clip-rule="evenodd" d="M7 3C7.88696 2.99977 8.74883 3.29435 9.4501 3.83741C10.1514 4.38047 10.6523 5.14121 10.874 6H19V8H10.874C10.6283 8.94049 10.0486 9.75939 9.24333 10.3038C8.43802 10.8482 7.46209 11.0809 6.49778 10.9584C5.53346 10.836 4.64669 10.3667 4.00303 9.63828C3.35937 8.90985 3.00284 7.97206 3 7C3 5.93913 3.42143 4.92172 4.17157 4.17157C4.92172 3.42143 5.93913 3 7 3ZM7 9C7.53043 9 8.03914 8.78929 8.41421 8.41421C8.78929 8.03914 9 7.53043 9 7C9 6.46957 8.78929 5.96086 8.41421 5.58579C8.03914 5.21071 7.53043 5 7 5C6.46957 5 5.96086 5.21071 5.58579 5.58579C5.21071 5.96086 5 6.46957 5 7C5 7.53043 5.21071 8.03914 5.58579 8.41421C5.96086 8.78929 6.46957 9 7 9ZM17 20C16.113 20.0002 15.2512 19.7056 14.5499 19.1626C13.8486 18.6195 13.3477 17.8588 13.126 17H5V15H13.126C13.3717 14.0595 13.9514 13.2406 14.7567 12.6962C15.562 12.1518 16.5379 11.9191 17.5022 12.0416C18.4665 12.164 19.3533 12.6333 19.997 13.3617C20.6406 14.0901 20.9972 15.0279 21 16C21 17.0609 20.5786 18.0783 19.8284 18.8284C19.0783 19.5786 18.0609 20 17 20ZM17 18C17.5304 18 18.0391 17.7893 18.4142 17.4142C18.7893 17.0391 19 16.5304 19 16C19 15.4696 18.7893 14.9609 18.4142 14.5858C18.0391 14.2107 17.5304 14 17 14C16.4696 14 15.9609 14.2107 15.5858 14.5858C15.2107 14.9609 15 15.4696 15 16C15 16.5304 15.2107 17.0391 15.5858 17.4142C15.9609 17.7893 16.4696 18 17 18Z" fill="currentColor"/>
</svg>
