<svg
  width="90"
  height="90"
  viewBox="0 0 90 90"
  fill="none"
  xmlns="http://www.w3.org/2000/svg"
  class="ci-icon mood-normal"
>
  <style>
    .face-smile,
    .face-normal,
    .face-sad {
      display: none;
    }

    .mood-smile .face-smile,
    .mood-normal .face-normal,
    .mood-sad .face-sad {
      display: inline;
    }
  </style>

  <path
      class="ci-shape"
      d="M13.0076 10.3807C13.4504 3.70578 20.8229 -0.112921 26.5303 3.37653L79.2808 35.6278C85.7655 39.5929 84.6167 49.338 77.3873 51.6858L63.0171 56.3527L69.2605 68.9151C71.593 73.6091 69.5742 79.3017 64.8049 81.4763L55.0172 85.9393C50.5405 87.9807 45.249 86.1696 42.9621 81.8134L35.7986 68.1689L22.7068 76.1697C16.5488 79.9329 8.70775 75.1873 9.18549 67.9861L13.0076 10.3807Z"
      fill="currentColor"
  />
  <g class="face-normal">
    <path
      d="M31.8828 41.7789C33.8723 41.7789 35.4852 39.5019 35.4852 36.6931C35.4852 33.8844 33.8723 31.6074 31.8828 31.6074C29.8932 31.6074 28.2804 33.8844 28.2804 36.6931C28.2804 39.5019 29.8932 41.7789 31.8828 41.7789Z"
      fill="white"
    />
    <path
      d="M51.289 36.6931C51.289 39.502 49.6763 41.7789 47.6868 41.7789C45.6972 41.7789 44.0841 39.502 44.0841 36.6931C44.0841 33.8844 45.6972 31.6074 47.6868 31.6074C49.6763 31.6074 51.289 33.8844 51.289 36.6931Z"
      fill="white"
    />
    <rect x="29.1122" y="47.4111" width="21.6262" height="4.99065" rx="2.49533" fill="white" />
  </g>

  <g class="face-smile">
    <path
      d="M30.3023 41.9571C32.2919 41.9571 33.9047 39.6801 33.9047 36.8714C33.9047 34.0626 32.2919 31.7856 30.3023 31.7856C28.3128 31.7856 26.7 34.0626 26.7 36.8714C26.7 39.6801 28.3128 41.9571 30.3023 41.9571Z"
      fill="white"
    />
    <path
      d="M53.4 36.8714C53.4 39.6802 51.7872 41.9572 49.7977 41.9572C47.8082 41.9572 46.1951 39.6802 46.1951 36.8714C46.1951 34.0626 47.8082 31.7856 49.7977 31.7856C51.7872 31.7856 53.4 34.0626 53.4 36.8714Z"
      fill="white"
    />
    <path
      d="M32.1766 46.4455C32.8839 45.6204 34.1402 45.5618 34.9211 46.3175L37.055 48.3827C38.7624 50.0351 41.4368 50.1464 43.2758 48.6419L45.7092 46.6509C46.4583 46.0379 47.5552 46.1147 48.2116 46.826C48.9466 47.6221 48.832 48.8796 47.965 49.5297L45.612 51.2945C45.4359 51.4265 45.2505 51.5455 45.0569 51.6501L43.8539 52.302C41.6174 53.5132 38.9167 53.4943 36.6976 52.2516L35.3595 51.5025C35.0966 51.3553 34.8482 51.1832 34.6178 50.9893L32.3938 49.1166C31.5919 48.4413 31.4943 47.2417 32.1766 46.4455Z"
      fill="white"
    />
  </g>

  <g class="face-sad">
    <path
      d="M32.241 42.2481C34.2529 42.2481 35.8839 39.9456 35.8839 37.1053C35.8839 34.2649 34.2529 31.9624 32.241 31.9624C30.2291 31.9624 28.5981 34.2649 28.5981 37.1053C28.5981 39.9456 30.2291 42.2481 32.241 42.2481Z"
      fill="white"
    />
    <path
      d="M51.8653 37.1053C51.8653 39.9457 50.2345 42.2482 48.2226 42.2482C46.2107 42.2482 44.5795 39.9457 44.5795 37.1053C44.5795 34.2649 46.2107 31.9624 48.2226 31.9624C50.2345 31.9624 51.8653 34.2649 51.8653 37.1053Z"
      fill="white"
    />
    <path
      d="M50.7006 54.542C49.7544 55.7595 48.0736 55.8459 47.0287 54.7308L44.1738 51.6835C41.8894 49.2453 38.3112 49.0811 35.8508 51.3011L32.5951 54.2389C31.5928 55.1433 30.1252 55.0301 29.2471 53.9806C28.2637 52.8058 28.417 50.9503 29.577 49.9911L32.725 47.3871C32.9607 47.1923 33.2088 47.0166 33.4678 46.8623L35.0773 45.9004C38.0695 44.1133 41.683 44.1412 44.6519 45.9748L46.4422 47.0801C46.794 47.2973 47.1262 47.5512 47.4346 47.8374L50.41 50.6007C51.4829 51.5971 51.6135 53.3672 50.7006 54.542Z"
      fill="white"
    />
  </g>
</svg>