<svg xmlns="http://www.w3.org/2000/svg" fill="none" version="1.1" width="36" height="36" viewBox="0 0 36 36"><g transform="matrix(1,0,0,-1,0,72)"><path d="M18,72Q22.9219,71.9297,27,69.6094Q31.0781,67.2188,33.6094,63Q36,58.710899999999995,36,54Q36,49.2891,33.6094,45Q31.0781,40.78125,27,38.39062Q22.9219,36.0703125,18,36Q13.0781,36.0703125,9,38.39062Q4.92188,40.78125,2.39062,45Q0,49.2891,0,54Q0,58.710899999999995,2.39062,63Q4.92188,67.2188,9,69.6094Q13.0781,71.9297,18,72ZM16.3125,63.5625L16.3125,54L16.3125,63.5625L16.3125,54Q16.3125,53.085899999999995,17.0859,52.5938L23.8359,48.0938Q25.1719,47.3203,26.1562,48.5859Q26.9297,49.9219,25.6641,50.9062L19.6875,54.914100000000005L19.6875,63.5625Q19.5469,65.1094,18,65.25Q16.4531,65.1094,16.3125,63.5625Z" fill="#007AFF" fill-opacity="1" style="mix-blend-mode:passthrough"/></g></svg>