<svg xmlns="http://www.w3.org/2000/svg" xmlns:xlink="http://www.w3.org/1999/xlink" fill="none" version="1.1" width="36" height="36" viewBox="0 0 36 36"><defs><clipPath id="master_svg0_85_3274"><rect x="0" y="0" width="36" height="36" rx="0"/></clipPath></defs><g clip-path="url(#master_svg0_85_3274)"><g transform="matrix(1,0,0,-1,0,73.546875)"><g><path d="M18,72.7734375Q22.9219,72.7031375,27,70.3828375Q31.0781,67.9922375,33.6094,63.7734375Q36,59.484337499999995,36,54.7734375Q36,50.0625375,33.6094,45.7734375Q31.0781,41.5546875,27,39.1640575Q22.9219,36.84375,18,36.7734375Q13.0781,36.84375,9,39.1640575Q4.92188,41.5546875,2.39062,45.7734375Q0,50.0625375,0,54.7734375Q0,59.484337499999995,2.39062,63.7734375Q4.92188,67.9922375,9,70.3828375Q13.0781,72.7031375,18,72.7734375ZM16.3125,64.3359375L16.3125,54.7734375L16.3125,64.3359375L16.3125,54.7734375Q16.3125,53.859337499999995,17.0859,53.3672375L23.8359,48.8672375Q25.1719,48.0937375,26.1562,49.3593375Q26.9297,50.6953375,25.6641,51.6796375L19.6875,55.687537500000005L19.6875,64.3359375Q19.5469,65.8828375,18,66.0234375Q16.4531,65.8828375,16.3125,64.3359375Z" fill="#007AFF" fill-opacity="1" style="mix-blend-mode:passthrough"/></g></g></g></svg>