<svg width="16" height="16" viewBox="0 0 16 16" fill="none" xmlns="http://www.w3.org/2000/svg">
<path d="M8.5 4.6665C8.5 4.5339 8.44732 4.40672 8.35355 4.31295C8.25979 4.21918 8.13261 4.1665 8 4.1665C7.86739 4.1665 7.74022 4.21918 7.64645 4.31295C7.55268 4.40672 7.5 4.5339 7.5 4.6665V7.99984C7.49996 8.08461 7.52148 8.168 7.56253 8.24217C7.60358 8.31634 7.66282 8.37885 7.73467 8.42384L9.73467 9.67384C9.84712 9.74421 9.98292 9.76703 10.1122 9.73727C10.1762 9.72254 10.2367 9.69534 10.2902 9.65723C10.3437 9.61912 10.3892 9.57085 10.424 9.51517C10.4588 9.45949 10.4824 9.39749 10.4933 9.33272C10.5041 9.26794 10.5022 9.20165 10.4874 9.13764C10.4727 9.07363 10.4455 9.01315 10.4074 8.95965C10.3693 8.90615 10.321 8.86068 10.2653 8.82584L8.5 7.7225V4.6665Z" fill="#D1D5DB"/>
<path fill-rule="evenodd" clip-rule="evenodd" d="M7.99996 2.1665C6.45286 2.1665 4.96913 2.78109 3.87517 3.87505C2.78121 4.96901 2.16663 6.45274 2.16663 7.99984C2.16663 9.54693 2.78121 11.0307 3.87517 12.1246C4.96913 13.2186 6.45286 13.8332 7.99996 13.8332C9.54706 13.8332 11.0308 13.2186 12.1248 12.1246C13.2187 11.0307 13.8333 9.54693 13.8333 7.99984C13.8333 6.45274 13.2187 4.96901 12.1248 3.87505C11.0308 2.78109 9.54706 2.1665 7.99996 2.1665ZM3.16663 7.99984C3.16663 7.36512 3.29164 6.73661 3.53454 6.1502C3.77744 5.56379 4.13346 5.03097 4.58228 4.58215C5.03109 4.13334 5.56392 3.77732 6.15032 3.53442C6.73673 3.29152 7.36524 3.1665 7.99996 3.1665C8.63468 3.1665 9.26319 3.29152 9.8496 3.53442C10.436 3.77732 10.9688 4.13334 11.4176 4.58215C11.8665 5.03097 12.2225 5.56379 12.4654 6.1502C12.7083 6.73661 12.8333 7.36512 12.8333 7.99984C12.8333 9.28172 12.3241 10.5111 11.4176 11.4175C10.5112 12.3239 9.28184 12.8332 7.99996 12.8332C6.71808 12.8332 5.4887 12.3239 4.58228 11.4175C3.67585 10.5111 3.16663 9.28172 3.16663 7.99984Z" fill="#D1D5DB"/>
</svg>
