<svg xmlns="http://www.w3.org/2000/svg" xmlns:xlink="http://www.w3.org/1999/xlink" fill="none" version="1.1" width="36" height="36" viewBox="0 0 36 36"><defs><clipPath id="master_svg0_85_3279"><rect x="0" y="0" width="36" height="36" rx="0"/></clipPath></defs><g clip-path="url(#master_svg0_85_3279)"><g transform="matrix(1,0,0,-1,0,73.546875)"><g><path d="M25.8047,43.7343775L7.03125,62.5781375L25.8047,43.7343775L7.03125,62.5781375Q4.57031,59.2031375,4.5,54.7734375Q4.64062,49.0078375,8.4375,45.2109375Q12.2344,41.4140575,18,41.2734375Q22.4297,41.3437475,25.8047,43.7343775ZM29.0391,46.9687375Q31.4297,50.3437375,31.5,54.7734375Q31.3594,60.5390375,27.5625,64.3359375Q23.7656,68.1328375,18,68.2734375Q13.5703,68.2031375,10.1953,65.7422375L29.0391,46.9687375ZM0,54.7734375Q0.0703125,59.6953375,2.39062,63.7734375Q4.78125,67.8515375,9,70.3828375Q13.2891,72.7734375,18,72.7734375Q22.7109,72.7734375,27,70.3828375Q31.2188,67.8515375,33.6094,63.7734375Q35.9297,59.6953375,36,54.7734375Q35.9297,49.8515375,33.6094,45.7734375Q31.2188,41.6953175,27,39.1640575Q22.7109,36.7734375,18,36.7734375Q13.2891,36.7734375,9,39.1640575Q4.78125,41.6953175,2.39062,45.7734375Q0.0703125,49.8515375,0,54.7734375Z" fill="#007AFF" fill-opacity="1" style="mix-blend-mode:passthrough"/></g></g></g></svg>