<svg xmlns="http://www.w3.org/2000/svg" fill="none" version="1.1" width="36" height="36" viewBox="0 0 36 36"><g transform="matrix(1,0,0,-1,0,72)"><path d="M25.8047,42.96094L7.03125,61.8047L25.8047,42.96094L7.03125,61.8047Q4.57031,58.4297,4.5,54Q4.64062,48.2344,8.4375,44.4375Q12.2344,40.64062,18,40.5Q22.4297,40.57031,25.8047,42.96094ZM29.0391,46.1953Q31.4297,49.5703,31.5,54Q31.3594,59.7656,27.5625,63.5625Q23.7656,67.3594,18,67.5Q13.5703,67.4297,10.1953,64.9688L29.0391,46.1953ZM0,54Q0.0703125,58.9219,2.39062,63Q4.78125,67.0781,9,69.6094Q13.2891,72,18,72Q22.7109,72,27,69.6094Q31.2188,67.0781,33.6094,63Q35.9297,58.9219,36,54Q35.9297,49.0781,33.6094,45Q32.4141,42.96094,30.7617,41.30859Q29.1094,39.65625,27,38.39062Q22.7109,36,18,36Q13.2891,36,9,38.39062Q4.78125,40.92188,2.39062,45Q0.0703125,49.0781,0,54Z" fill="#007AFF" fill-opacity="1" style="mix-blend-mode:passthrough"/></g></svg>