<svg width="16" height="16" viewBox="0 0 16 16" fill="none" xmlns="http://www.w3.org/2000/svg">
<path d="M7.18066 10.5625C7.88416 10.5629 8.47281 11.0824 8.63086 11.7812H14.625C14.8321 11.7812 15 11.9491 15 12.1562C15 12.3634 14.8321 12.5312 14.625 12.5312H8.63086C8.47281 13.2301 7.88416 13.7496 7.18066 13.75C6.47688 13.75 5.88776 13.2303 5.72949 12.5312H1.375C1.16789 12.5312 1 12.3634 1 12.1562C1 11.9491 1.16789 11.7812 1.375 11.7812H5.72949C5.88776 11.0822 6.47688 10.5625 7.18066 10.5625ZM7.18066 11.2812C6.72774 11.2812 6.36035 11.673 6.36035 12.1562C6.36035 12.6395 6.72774 13.0312 7.18066 13.0312C7.63324 13.0308 8 12.6392 8 12.1562C8 11.6733 7.63324 11.2817 7.18066 11.2812ZM11.7197 6.40625C12.4233 6.40647 13.0117 6.92611 13.1699 7.625H14.625C14.8321 7.625 15 7.79289 15 8C15 8.20711 14.8321 8.375 14.625 8.375H13.1699C13.0117 9.0739 12.4233 9.59353 11.7197 9.59375C11.0161 9.59356 10.4277 9.07393 10.2695 8.375H1.375C1.16789 8.375 1 8.20711 1 8C1 7.79289 1.16789 7.625 1.375 7.625H10.2695C10.4277 6.92608 11.0161 6.40644 11.7197 6.40625ZM11.7197 7.125C11.267 7.12523 10.9004 7.51689 10.9004 8C10.9004 8.48311 11.267 8.87477 11.7197 8.875C12.1724 8.87474 12.54 8.48309 12.54 8C12.54 7.51691 12.1724 7.12526 11.7197 7.125ZM5.07129 2.25C5.77489 2.2502 6.36337 2.76981 6.52148 3.46875H14.625C14.8321 3.46875 15 3.63664 15 3.84375C15 4.05086 14.8321 4.21875 14.625 4.21875H6.52148C6.36337 4.91769 5.77489 5.43729 5.07129 5.4375C4.36758 5.43737 3.77832 4.9178 3.62012 4.21875H1.375C1.16789 4.21875 1 4.05086 1 3.84375C1 3.63664 1.16789 3.46875 1.375 3.46875H3.62012C3.77832 2.7697 4.36758 2.25013 5.07129 2.25ZM5.07129 2.96875C4.61849 2.9689 4.25098 3.36059 4.25098 3.84375C4.25098 4.32691 4.61849 4.7186 5.07129 4.71875C5.52402 4.71852 5.89062 4.32686 5.89062 3.84375C5.89062 3.36064 5.52402 2.96898 5.07129 2.96875Z" fill="#9CA3AF"/>
</svg>
