<svg xmlns="http://www.w3.org/2000/svg" fill="none" version="1.1" width="17.971202850341797" height="16.003124237060547" viewBox="0 0 17.971202850341797 16.003124237060547"><g transform="matrix(1,0,0,-1,0,32.006248474121094)"><path d="M17.9688,24.003124237060547Q17.9376,23.596874237060547,17.6568,23.315624237060547Q17.3761,23.034374237060547,16.9705,23.003124237060547L15.9723,23.003124237060547L16.0035,18.003124237060547Q15.9723,17.878124237060547,15.9723,17.753124237060547L15.9723,17.253124237060547Q15.9723,16.721874237060547,15.5979,16.378124237060547Q15.2548,16.003124237060547,14.7244,16.003124237060547L14.2253,16.003124237060547Q14.1629,16.003124237060547,14.1317,16.003124237060547Q14.0693,16.003124237060547,14.0069,16.003124237060547L12.9775,16.003124237060547L12.2288,16.003124237060547Q11.6984,16.003124237060547,11.3553,16.378124237060547Q10.9809,16.721874237060547,10.9809,17.253124237060547L10.9809,18.003124237060547L10.9809,20.003124237060547Q10.9809,20.440624237060547,10.7002,20.721874237060547Q10.4194,21.003124237060547,9.98267,21.003124237060547L7.98614,21.003124237060547Q7.54939,21.003124237060547,7.26863,20.721874237060547Q6.98787,20.440624237060547,6.98787,20.003124237060547L6.98787,18.003124237060547L6.98787,17.253124237060547Q6.98787,16.721874237060547,6.61352,16.378124237060547Q6.27036,16.003124237060547,5.74003,16.003124237060547L4.99133,16.003124237060547L3.99307,16.003124237060547Q3.96187,16.003124237060547,3.93068,16.003124237060547Q3.89948,16.003124237060547,3.86828,16.003124237060547Q3.80589,16.003124237060547,3.7435,16.003124237060547L3.24437,16.003124237060547Q2.71404,16.003124237060547,2.37088,16.378124237060547Q1.99653,16.721874237060547,1.99653,17.253124237060547L1.99653,20.753124237060547Q1.99653,20.784374237060547,1.99653,20.846874237060547L1.99653,23.003124237060547L0.998267,23.003124237060547Q0.561525,23.034374237060547,0.280763,23.315624237060547Q0,23.596874237060547,0,24.034374237060547Q0,24.440624237060547,0.311958,24.784374237060547L8.29809,31.753124237060547Q8.64125,32.034324237060545,8.9844,32.00312423706055Q9.35875,32.00312423706055,9.63952,31.78442423706055L17.6257,24.753124237060547Q18,24.440624237060547,17.9688,24.003124237060547Z" fill="#FFFFFF" fill-opacity="1" style="mix-blend-mode:passthrough"/></g></svg>