<svg width="24" height="24" viewBox="0 0 24 24" fill="none" xmlns="http://www.w3.org/2000/svg">
<g clip-path="url(#clip0_3195_1180)">
<path fill-rule="evenodd" clip-rule="evenodd" d="M12 3.66667C7.3975 3.66667 3.66667 7.3975 3.66667 12C3.66667 16.6025 7.3975 20.3333 12 20.3333C16.6025 20.3333 20.3333 16.6025 20.3333 12C20.3333 7.3975 16.6025 3.66667 12 3.66667ZM2 12C2 6.47708 6.47708 2 12 2C17.5229 2 22 6.47708 22 12C22 17.5229 17.5229 22 12 22C6.47708 22 2 17.5229 2 12Z" fill="#9CA3AF"/>
<path fill-rule="evenodd" clip-rule="evenodd" d="M9.9929 20.9465C9.91235 20.8424 9.91235 19.9154 9.9929 18.1657C9.12985 18.1957 8.58443 18.1359 8.35665 17.9861C8.0154 17.7615 7.67332 17.0695 7.3704 16.5815C7.06749 16.0936 6.39415 16.0165 6.12249 15.9074C5.85082 15.7986 5.78249 15.354 6.87124 15.6899C7.95999 16.0261 8.0129 16.942 8.35665 17.1557C8.7004 17.3699 9.52165 17.2765 9.89374 17.1049C10.2658 16.9332 10.2383 16.2949 10.305 16.042C10.3887 15.8057 10.0929 15.7532 10.0867 15.7515C9.7229 15.7515 7.81415 15.3361 7.28957 13.4878C6.7654 11.639 7.44082 10.4307 7.80124 9.91155C8.04124 9.56488 8.01999 8.82682 7.73749 7.69738C8.76415 7.56571 9.55624 7.88877 10.1137 8.66655C10.1146 8.67071 10.8454 8.23196 12 8.23196C13.1546 8.23196 13.5646 8.58946 13.8808 8.66655C14.1971 8.74363 14.45 7.30571 16.4029 7.69738C15.995 8.49863 15.6537 9.49988 15.9142 9.91155C16.175 10.3228 17.1975 11.6311 16.5696 13.4878C16.1504 14.7253 15.3269 15.4799 14.0992 15.7515C13.9586 15.7965 13.8883 15.869 13.8883 15.969C13.8883 16.119 14.0783 16.1353 14.3525 16.8382C14.5358 17.3065 14.5492 18.6447 14.3925 20.8528C13.9961 20.9536 13.6878 21.0214 13.4675 21.0561C13.0771 21.1174 12.6529 21.152 12.2362 21.1649C11.8196 21.1782 11.675 21.177 11.0987 21.1232C10.7266 21.0892 10.3571 21.0302 9.9929 20.9465Z" fill="#9CA3AF"/>
</g>
</svg>
