<svg width="24" height="24" viewBox="0 0 24 24" fill="none" xmlns="http://www.w3.org/2000/svg">
<path d="M5.679 18.123C3.093 16.566 1.5 14.112 1.5 11.405C1.501 6.701 6.249 3 12.001 3C17.753 3 22.501 6.701 22.501 11.405C22.501 16.109 17.753 19.81 12.001 19.81C11.559 19.81 11.1197 19.7883 10.683 19.745L6.918 22.203C6.303 22.529 5.961 22.628 5.433 22.269C4.813 21.845 4.837 21.377 5.051 20.709L5.679 18.123ZM3.5 11.405C3.5 13.537 4.918 15.528 7.281 16.725L7.987 17.084L7.801 17.854L7.4 19.502L10.2 17.672L10.565 17.718C11.039 17.7793 11.5173 17.81 12 17.81C16.741 17.81 20.5 14.88 20.5 11.405C20.5 7.93 16.742 5 12.001 5C7.26 5 3.5 7.93 3.5 11.405ZM17.908 11.059L19.422 13.214C19.4577 13.2648 19.483 13.322 19.4965 13.3826C19.51 13.4431 19.5115 13.5057 19.5008 13.5668C19.4901 13.6279 19.4675 13.6863 19.4342 13.7387C19.401 13.791 19.3578 13.8363 19.307 13.872C19.2562 13.9077 19.199 13.933 19.1384 13.9465C19.0779 13.96 19.0153 13.9615 18.9542 13.9508C18.8931 13.9401 18.8347 13.9175 18.7823 13.8842C18.73 13.851 18.6847 13.8078 18.649 13.757L17.221 11.724L16.794 12.137V13.5C16.794 13.6252 16.7443 13.7452 16.6558 13.8338C16.5672 13.9223 16.4472 13.972 16.322 13.972C16.1968 13.972 16.0768 13.9223 15.9882 13.8338C15.8997 13.7452 15.85 13.6252 15.85 13.5V12.061C15.8334 11.9879 15.8334 11.9121 15.85 11.839V9.282C15.85 9.15682 15.8997 9.03676 15.9882 8.94825C16.0768 8.85973 16.1968 8.81 16.322 8.81C16.4472 8.81 16.5672 8.85973 16.6558 8.94825C16.7443 9.03676 16.794 9.15682 16.794 9.282V10.824L18.722 8.958C18.8128 8.87613 18.9319 8.83271 19.0541 8.83689C19.1763 8.84107 19.2922 8.89252 19.3772 8.98041C19.4622 9.06829 19.5098 9.18575 19.51 9.30804C19.5101 9.43033 19.4628 9.54791 19.378 9.636L17.908 11.059ZM14.95 12.984C15.0752 12.984 15.1952 13.0337 15.2838 13.1222C15.3723 13.2108 15.422 13.3308 15.422 13.456C15.422 13.5812 15.3723 13.7012 15.2838 13.7898C15.1952 13.8783 15.0752 13.928 14.95 13.928H13.018C12.956 13.9281 12.8946 13.916 12.8374 13.8923C12.7801 13.8686 12.7281 13.8339 12.6843 13.79C12.6405 13.7461 12.6059 13.694 12.5823 13.6367C12.5587 13.5794 12.5467 13.518 12.547 13.456V9.297C12.5441 9.23325 12.5541 9.16958 12.5765 9.10981C12.5988 9.05005 12.6331 8.99544 12.6772 8.9493C12.7212 8.90315 12.7742 8.86641 12.8329 8.84132C12.8915 8.81622 12.9547 8.80328 13.0185 8.80328C13.0823 8.80328 13.1455 8.81622 13.2041 8.84132C13.2628 8.86641 13.3158 8.90315 13.3598 8.9493C13.4039 8.99544 13.4382 9.05005 13.4605 9.10981C13.4829 9.16958 13.4929 9.23325 13.49 9.297V12.984H14.95ZM9.093 11.893H10.427L9.789 10.185L9.093 11.893ZM11.616 12.38L11.961 13.305C11.9848 13.3635 11.9967 13.4262 11.9958 13.4893C11.995 13.5525 11.9815 13.6148 11.9561 13.6727C11.9308 13.7305 11.8941 13.7827 11.8482 13.8261C11.8023 13.8694 11.7481 13.9032 11.689 13.9253C11.6298 13.9474 11.5668 13.9574 11.5037 13.9546C11.4406 13.9519 11.3787 13.9366 11.3216 13.9095C11.2645 13.8825 11.2135 13.8442 11.1715 13.7971C11.1295 13.7499 11.0973 13.6948 11.077 13.635L10.779 12.836H8.709L8.377 13.649C8.35356 13.7064 8.31904 13.7586 8.27543 13.8026C8.23181 13.8467 8.17994 13.8817 8.12279 13.9057C8.06563 13.9297 8.00431 13.9422 7.94232 13.9425C7.88033 13.9428 7.81889 13.9309 7.7615 13.9075C7.70411 13.8841 7.6519 13.8495 7.60785 13.8059C7.56381 13.7623 7.52878 13.7104 7.50478 13.6533C7.48077 13.5961 7.46826 13.5348 7.46796 13.4728C7.46765 13.4108 7.47956 13.3494 7.503 13.292L9.165 9.217C9.21605 9.08531 9.30573 8.97215 9.42227 8.89237C9.53882 8.81259 9.67677 8.76994 9.818 8.77C9.95833 8.7758 10.0936 8.8243 10.2056 8.90899C10.3176 8.99369 10.4012 9.11057 10.445 9.244L11.491 12.044C11.5723 12.1308 11.6177 12.2451 11.618 12.364L11.616 12.38ZM8.294 9.302C8.294 9.562 8.084 9.774 7.823 9.774H6.683V13.51C6.683 13.6353 6.63322 13.7555 6.54461 13.8441C6.456 13.9327 6.33581 13.9825 6.2105 13.9825C6.08518 13.9825 5.965 13.9327 5.87639 13.8441C5.78778 13.7555 5.738 13.6353 5.738 13.51V9.774H4.578C4.45282 9.774 4.33276 9.72427 4.24425 9.63575C4.15573 9.54724 4.106 9.42718 4.106 9.302C4.106 9.17682 4.15573 9.05676 4.24425 8.96825C4.33276 8.87973 4.45282 8.83 4.578 8.83H7.823C8.083 8.83 8.294 9.041 8.294 9.302Z" fill="#9CA3AF"/>
</svg>
