<svg xmlns="http://www.w3.org/2000/svg" fill="none" version="1.1" width="36" height="36" viewBox="0 0 36 36"><g transform="matrix(1,0,0,-1,0,72)"><g><path d="M18,36Q22.9219,36.0703125,27,38.39062Q31.0781,40.78125,33.6094,45Q36,49.2891,36,54Q36,58.710899999999995,33.6094,63Q31.0781,67.2188,27,69.6094Q22.9219,71.9297,18,72Q13.0781,71.9297,9,69.6094Q4.92188,67.2188,2.39062,63Q0,58.710899999999995,0,54Q0,49.2891,2.39062,45Q4.92188,40.78125,9,38.39062Q13.0781,36.0703125,18,36ZM18,63Q19.5469,62.8594,19.6875,61.3125L19.6875,53.4375Q19.5469,51.8906,18,51.75Q16.4531,51.8906,16.3125,53.4375L16.3125,61.3125Q16.4531,62.8594,18,63ZM15.75,47.25Q15.75,48.2344,16.3828,48.8672Q17.0156,49.5,18,49.5Q18.9844,49.5,19.6172,48.8672Q20.25,48.2344,20.25,47.25Q20.25,46.2656,19.6172,45.63281Q18.9844,45,18,45Q17.0156,45,16.3828,45.63281Q15.75,46.2656,15.75,47.25Z" fill="#9CA3AF" fill-opacity="1" style="mix-blend-mode:passthrough"/></g></g></svg>