<svg xmlns="http://www.w3.org/2000/svg" fill="none" version="1.1" width="15" height="15" viewBox="0 0 15 15"><g transform="matrix(1,0,0,-1,0,30)"><path d="M10.3125,30Q9.69727,29.9707,9.43359,29.414099999999998Q9.22852,28.8574,9.63867,28.3887L10.8691,27.1875L5.88867,22.23633Q5.625,21.94336,5.625,21.5625Q5.625,21.18164,5.88867,20.88867Q6.18164,20.625,6.5625,20.625Q6.94336,20.625,7.23633,20.88867L12.1875,25.8691L13.3887,24.638669999999998Q13.8574,24.22852,14.4141,24.433590000000002Q14.9707,24.69727,15,25.3125L15,29.0625Q15,29.4727,14.7363,29.7363Q14.4727,30,14.0625,30L10.3125,30ZM2.34375,29.0625Q1.34766,29.0332,0.673828,28.3887Q0.0292969,27.7148,0,26.7188L0,17.34375Q0.0292969,16.34766,0.673828,15.673828Q1.34766,15.0292969,2.34375,15L11.7188,15Q12.7148,15.0292969,13.3887,15.673828Q14.0332,16.34766,14.0625,17.34375L14.0625,20.625Q14.0625,21.03516,13.7988,21.29883Q13.5352,21.5625,13.125,21.5625Q12.7148,21.5625,12.4512,21.29883Q12.1875,21.03516,12.1875,20.625L12.1875,17.34375Q12.1582,16.9043,11.7188,16.875L2.34375,16.875Q1.9043,16.9043,1.875,17.34375L1.875,26.7188Q1.9043,27.1582,2.34375,27.1875L5.625,27.1875Q6.03516,27.1875,6.29883,27.4512Q6.5625,27.7148,6.5625,28.125Q6.5625,28.5352,6.29883,28.7988Q6.03516,29.0625,5.625,29.0625L2.34375,29.0625Z" fill="#007AFF" fill-opacity="1" style="mix-blend-mode:passthrough"/></g></svg>