<svg xmlns="http://www.w3.org/2000/svg" xmlns:xlink="http://www.w3.org/1999/xlink" fill="none" version="1.1" width="16" height="16" viewBox="0 0 16 16"><defs><clipPath id="master_svg0_77_1143"><rect x="0" y="0" width="16" height="16" rx="0"/></clipPath></defs><g clip-path="url(#master_svg0_77_1143)"><g transform="matrix(1,0,0,-1,0,32.6875)"><g><path d="M11,32.34375Q10.3438,32.31255,10.0625,31.71875Q9.84375,31.12495,10.2812,30.62495L11.5938,29.34375L6.28125,24.0625Q6,23.75,6,23.34375Q6,22.9375,6.28125,22.625Q6.59375,22.34375,7,22.34375Q7.40625,22.34375,7.71875,22.625L13,27.93755L14.2812,26.62495Q14.7812,26.1875,15.375,26.40625Q15.9688,26.68755,16,27.34375L16,31.34375Q16,31.78125,15.7188,32.06255Q15.4375,32.34375,15,32.34375L11,32.34375ZM2.5,31.34375Q1.4375,31.31255,0.71875,30.62495Q0.03125,29.90625,0,28.84375L0,18.84375Q0.03125,17.78125,0.71875,17.0625Q1.4375,16.375,2.5,16.34375L12.5,16.34375Q13.5625,16.375,14.2812,17.0625Q14.9688,17.78125,15,18.84375L15,22.34375Q15,22.78125,14.7188,23.0625Q14.4375,23.34375,14,23.34375Q13.5625,23.34375,13.2812,23.0625Q13,22.78125,13,22.34375L13,18.84375Q12.9688,18.375,12.5,18.34375L2.5,18.34375Q2.03125,18.375,2,18.84375L2,28.84375Q2.03125,29.31255,2.5,29.34375L6,29.34375Q6.4375,29.34375,6.71875,29.62495Q7,29.90625,7,30.34375Q7,30.78125,6.71875,31.06255Q6.4375,31.34375,6,31.34375L2.5,31.34375Z" fill="#FFFFFF" fill-opacity="1" style="mix-blend-mode:passthrough"/></g></g></g></svg>