<svg xmlns="http://www.w3.org/2000/svg" fill="none" version="1.1" width="36" height="36" viewBox="0 0 36 36"><defs><clipPath id="master_svg0_106_2202"><rect x="0" y="0" width="36" height="36" rx="0"/></clipPath></defs><g clip-path="url(#master_svg0_106_2202)"><g transform="matrix(1,0,0,-1,0,69.046875)"><g><path d="M2.25,66.0234375Q3.23438,66.0234375,3.86719,65.3906375Q4.5,64.7578375,4.5,63.7734375L4.5,40.1484375Q4.57031,39.0937475,5.625,39.0234375L33.75,39.0234375Q34.7344,39.0234375,35.3672,38.3906275Q36,37.7578175,36,36.7734375Q36,35.7890575,35.3672,35.1562495Q34.7344,34.5234375,33.75,34.5234375L5.625,34.5234375Q3.23438,34.59375,1.61719,36.1406275Q0.0703125,37.7578175,0,40.1484375L0,63.7734375Q0,64.7578375,0.632812,65.3906375Q1.26562,66.0234375,2.25,66.0234375ZM9,59.2734375Q9,60.2578375,9.63281,60.8906375Q10.2656,61.5234375,11.25,61.5234375L24.75,61.5234375Q25.7344,61.5234375,26.3672,60.8906375Q27,60.2578375,27,59.2734375Q27,58.2890375,26.3672,57.6562375Q25.7344,57.0234375,24.75,57.0234375L11.25,57.0234375Q10.2656,57.0234375,9.63281,57.6562375Q9,58.2890375,9,59.2734375ZM11.25,54.7734375L20.25,54.7734375L11.25,54.7734375L20.25,54.7734375Q21.2344,54.7734375,21.8672,54.1406375Q22.5,53.5078375,22.5,52.5234375Q22.5,51.5390375,21.8672,50.9062375Q21.2344,50.2734375,20.25,50.2734375L11.25,50.2734375Q10.2656,50.2734375,9.63281,50.9062375Q9,51.5390375,9,52.5234375Q9,53.5078375,9.63281,54.1406375Q10.2656,54.7734375,11.25,54.7734375ZM11.25,48.0234375L29.25,48.0234375L11.25,48.0234375L29.25,48.0234375Q30.2344,48.0234375,30.8672,47.3906375Q31.5,46.7578375,31.5,45.7734375Q31.5,44.7890375,30.8672,44.1562475Q30.2344,43.5234375,29.25,43.5234375L11.25,43.5234375Q10.2656,43.5234375,9.63281,44.1562475Q9,44.7890375,9,45.7734375Q9,46.7578375,9.63281,47.3906375Q10.2656,48.0234375,11.25,48.0234375Z" fill="#9CA3AF" fill-opacity="1" style="mix-blend-mode:passthrough"/></g></g></g></svg>