<svg width="12" height="12" viewBox="0 0 12 12" fill="none" xmlns="http://www.w3.org/2000/svg">
<path d="M7.4233 2.37164L1.4488 8.34497C1.27116 8.52254 1.15557 8.7527 1.11921 9.00122L0.796631 11.2027L2.99871 10.8801C3.24731 10.8436 3.47748 10.7278 3.65496 10.55L9.6283 4.57664M7.4233 2.37164L8.72355 1.07081C8.81022 0.984115 8.91312 0.915347 9.02637 0.86843C9.13962 0.821512 9.26101 0.797363 9.38359 0.797363C9.50618 0.797363 9.62756 0.821512 9.74081 0.86843C9.85406 0.915347 9.95696 0.984115 10.0436 1.07081L10.9291 1.95631C11.0158 2.04298 11.0846 2.14588 11.1315 2.25913C11.1784 2.37238 11.2026 2.49376 11.2026 2.61635C11.2026 2.73893 11.1784 2.86032 11.1315 2.97357C11.0846 3.08682 11.0158 3.18972 10.9291 3.27639L9.6283 4.57664M7.4233 2.37164L9.6283 4.57664" stroke="#D1D5DB" stroke-width="1.5" stroke-linecap="round" stroke-linejoin="round"/>
</svg>
