<svg xmlns="http://www.w3.org/2000/svg" fill="none" version="1.1" width="24" height="24" viewBox="0 0 24 24"><g transform="matrix(1,0,0,-1,0,48)"><path d="M18.7031,30Q17.9062,31.35938,16.5469,32.15625Q15.1875,33,13.5,33L10.5,33Q8.8125,33,7.45312,32.15625Q6.09375,31.35938,5.29688,30Q6.5625,28.59375,8.25,27.79688Q9.98438,27,12,27Q14.0156,27,15.75,27.79688Q17.4375,28.59375,18.7031,30ZM0,36Q0.046875,39.2812,1.59375,42Q3.1875,44.7188,6,46.4062Q8.85938,48,12,48Q15.1406,48,18,46.4062Q20.8125,44.7188,22.4062,42Q23.9531,39.2812,24,36Q23.9531,32.71875,22.4062,30Q20.8125,27.28125,18,25.59375Q15.1406,24,12,24Q8.85938,24,6,25.59375Q3.1875,27.28125,1.59375,30Q0.046875,32.71875,0,36ZM12,35.25Q13.9219,35.2969,14.9062,36.9375Q15.8438,38.625,14.9062,40.3125Q13.9219,41.9531,12,42Q10.0781,41.9531,9.09375,40.3125Q8.15625,38.625,9.09375,36.9375Q10.0781,35.2969,12,35.25Z" fill="#007AFF" fill-opacity="1" style="mix-blend-mode:passthrough"/></g></svg>