<svg xmlns="http://www.w3.org/2000/svg" fill="none" version="1.1" width="24" height="24" viewBox="0 0 24 24"><defs><clipPath id="master_svg0_85_3239"><rect x="0" y="0" width="24" height="24" rx="0"/></clipPath></defs><g clip-path="url(#master_svg0_85_3239)"><g transform="matrix(1,0,0,-1,0,49.03125)"><g><path d="M18.7031,30.515625Q17.9062,31.875005,16.5469,32.671875Q15.1875,33.515625,13.5,33.515625L10.5,33.515625Q8.8125,33.515625,7.45312,32.671875Q6.09375,31.875005,5.29688,30.515625Q6.5625,29.109375,8.25,28.312505Q9.98438,27.515625,12,27.515625Q14.0156,27.515625,15.75,28.312505Q17.4375,29.109375,18.7031,30.515625ZM0,36.515625Q0.046875,39.796825,1.59375,42.515625Q3.1875,45.234425,6,46.921825Q8.85938,48.515625,12,48.515625Q15.1406,48.515625,18,46.921825Q20.8125,45.234425,22.4062,42.515625Q23.9531,39.796825,24,36.515625Q23.9531,33.234375,22.4062,30.515625Q20.8125,27.796875,18,26.109375Q15.1406,24.515625,12,24.515625Q8.85938,24.515625,6,26.109375Q3.1875,27.796875,1.59375,30.515625Q0.046875,33.234375,0,36.515625ZM12,35.765625Q13.9219,35.812525,14.9062,37.453125Q15.8438,39.140625,14.9062,40.828125Q13.9219,42.468725,12,42.515625Q10.0781,42.468725,9.09375,40.828125Q8.15625,39.140625,9.09375,37.453125Q10.0781,35.812525,12,35.765625Z" fill="#007AFF" fill-opacity="1" style="mix-blend-mode:passthrough"/></g></g></g></svg>