<svg xmlns="http://www.w3.org/2000/svg" fill="none" version="1.1" width="33.75" height="36" viewBox="0 0 33.75 36"><defs><clipPath id="master_svg0_85_3284"><rect x="0" y="0" width="33.75" height="36" rx="0"/></clipPath></defs><g clip-path="url(#master_svg0_85_3284)"><g transform="matrix(1,0,0,-1,0,69.046875)"><g><path d="M6.25781,54.000037500000005Q7.10156,56.3906375,8.92969,58.2187375Q12.375,61.5234375,16.875,61.5234375Q21.375,61.5234375,24.8203,58.2187375L26.0156,57.0234375L23.625,57.0234375Q22.6406,57.0234375,22.0078,56.3906375Q21.375,55.7578375,21.375,54.7734375Q21.375,53.7890375,22.0078,53.1562375Q22.6406,52.5234375,23.625,52.5234375L31.5,52.5234375Q32.4844,52.5234375,33.1172,53.1562375Q33.75,53.7890375,33.75,54.7734375L33.75,62.6484375Q33.75,63.6328375,33.1172,64.2656375Q32.4844,64.8984375,31.5,64.8984375Q30.5156,64.8984375,29.8828,64.2656375Q29.25,63.6328375,29.25,62.6484375L29.25,60.187537500000005L27.9844,61.3828375Q24.8906,64.4765375,20.8828,65.5312375Q16.875,66.5156375,12.8672,65.5312375Q8.85938,64.4765375,5.76562,61.3828375Q3.16406,58.7812375,2.03906,55.546837499999995Q1.75781,54.6328375,2.10938,53.7890375Q2.53125,53.0156375,3.375,52.6640375Q4.28906,52.3828375,5.13281,52.734337499999995Q5.90625,53.1562375,6.25781,54.000037500000005ZM1.61719,47.9531375Q1.05469,47.7422375,0.632812,47.3203375Q0.210938,46.8984375,0.0703125,46.3359375Q0.0703125,46.2656375,0,46.1250375Q0,45.9140375,0,45.7734375L0,37.8984375Q0,36.9140575,0.632812,36.2812475Q1.26562,35.6484375,2.25,35.6484375Q3.23438,35.6484375,3.86719,36.2812475Q4.5,36.9140575,4.5,37.8984375L4.5,40.3593775L5.76562,39.1640575Q8.85938,36.0703175,12.8672,35.0156255Q16.875,34.0312495,20.8828,35.0156255Q24.8906,36.0703175,27.9844,39.1640575Q30.5859,41.7656275,31.7109,45.0000375Q31.9922,45.9140375,31.6406,46.7578375Q31.2188,47.5312375,30.375,47.8828375Q29.4609,48.1640375,28.6172,47.8125375Q27.8438,47.3906375,27.4922,46.5468375Q26.6484,44.2265575,24.8203,42.3281275Q21.375,39.0234375,16.875,39.0234375Q12.375,39.0234375,8.92969,42.3281275L7.73438,43.5234375L10.125,43.5234375Q11.1094,43.5234375,11.7422,44.1562475Q12.375,44.7890375,12.375,45.7734375Q12.375,46.7578375,11.7422,47.3906375Q11.1094,48.0234375,10.125,48.0234375L2.25,48.0234375Q2.10938,48.0234375,1.96875,48.0234375Q1.75781,47.9531375,1.61719,47.9531375Z" fill="#007AFF" fill-opacity="1" style="mix-blend-mode:passthrough"/></g></g></g></svg>