<svg xmlns="http://www.w3.org/2000/svg" fill="none" version="1.1" width="12.68359375" height="12.25" viewBox="0 0 12.68359375 12.25"><g transform="matrix(1,0,0,-1,0,24.5)"><g><path d="M9.67675,21L8.30998,21L9.67675,21L8.30998,21Q7.92728,21,7.68126,20.753909999999998Q7.43524,20.50781,7.43524,20.125Q7.43524,19.74219,7.68126,19.49609Q7.92728,19.25,8.30998,19.25L11.8089,19.25Q12.1916,19.25,12.4376,19.49609Q12.6837,19.74219,12.6837,20.125L12.6837,23.625Q12.6837,24.0078,12.4376,24.2539Q12.1916,24.5,11.8089,24.5Q11.4262,24.5,11.1802,24.2539Q10.9342,24.0078,10.9342,23.625L10.9342,22.23047L10.4421,22.6953Q9.23938,23.898400000000002,7.68126,24.3086Q6.12314,24.6914,4.56502,24.3086Q3.0069,23.898400000000002,1.80414,22.6953Q0.60138,21.49219,0.191348,19.93359Q-0.191348,18.375,0.191348,16.81641Q0.60138,15.25781,1.80414,14.05469Q3.0069,12.851562,4.56502,12.441406Q6.12314,12.058594,7.68126,12.441406Q9.23938,12.851562,10.4421,14.05469Q10.7155,14.30078,10.7155,14.65625Q10.7155,15.01172,10.4421,15.28516Q10.1961,15.53125,9.84076,15.53125Q9.4854,15.53125,9.21205,15.28516Q7.87261,14,6.12314,14Q4.37367,14,3.03424,15.28516Q1.74947,16.625,1.74947,18.375Q1.74947,20.125,3.03424,21.464840000000002Q4.37367,22.75,6.12314,22.75Q7.87261,22.75,9.21205,21.464840000000002L9.67675,21Z" fill="#FFFFFF" fill-opacity="1" style="mix-blend-mode:passthrough"/></g></g></svg>