<svg xmlns="http://www.w3.org/2000/svg" fill="none" version="1.1" width="15.75" height="18" viewBox="0 0 15.75 18"><defs><clipPath id="master_svg0_85_3269"><rect x="0" y="0" width="15.75" height="18" rx="0"/></clipPath></defs><g clip-path="url(#master_svg0_85_3269)"><g transform="matrix(1,0,0,-1,0,32.2734375)"><g><path d="M15.4336,22.07812875Q15.75,22.42968875,15.75,22.88671875Q15.75,23.34374875,15.4336,23.69530875L9.80859,29.32031875Q9.45703,29.63671875,9,29.63671875Q8.54297,29.63671875,8.19141,29.32031875Q7.875,28.96871875,7.875,28.51171875Q7.875,28.05471875,8.19141,27.70311875L11.918,24.01171875L1.125,24.01171875Q0.632812,24.01171875,0.316406,23.69530875Q0,23.37890875,0,22.88671875Q0,22.39452875,0.316406,22.07812875Q0.632812,21.76171875,1.125,21.76171875L11.918,21.76171875L8.19141,18.07030875Q7.875,17.71874875,7.875,17.26171875Q7.875,16.80468775,8.19141,16.45312475Q8.54297,16.13671875,9,16.13671875Q9.45703,16.13671875,9.80859,16.45312475L15.4336,22.07812875Z" fill="#FFFFFF" fill-opacity="1" style="mix-blend-mode:passthrough"/></g></g></g></svg>