<svg xmlns="http://www.w3.org/2000/svg" fill="none" version="1.1" width="16.6875" height="16" viewBox="0 0 16.6875 16"><defs><clipPath id="master_svg0_76_1232"><rect x="0" y="0" width="16.6875" height="16" rx="0"/></clipPath></defs><g clip-path="url(#master_svg0_76_1232)"><g transform="matrix(1,0,0,-1,0,32.51666259765625)"><g><path d="M8.343745850524902,32.26663129882812Q8.812495850524902,32.235431298828125,9.031245850524902,31.829131298828123L11.156285850524903,27.422931298828125L15.937485850524903,26.735431298828125Q16.406285850524903,26.641631298828123,16.5624858505249,26.204161298828126Q16.6874858505249,25.766661298828126,16.3749858505249,25.454161298828126L12.906285850524903,22.016661298828126L13.718785850524903,17.141664298828125Q13.781285850524903,16.704164298828125,13.406285850524903,16.391664298828125Q13.031285850524903,16.141664298828125,12.624985850524903,16.360414298828125L8.343745850524902,18.641661298828126L4.062495850524902,16.360414298828125Q3.6562458505249023,16.141664298828125,3.2812458505249023,16.422914298828125Q2.9062458505249023,16.704164298828125,2.9687458505249023,17.141664298828125L3.7812458505249023,22.016661298828126L0.31249985052490237,25.454161298828126Q1.5052490234812588e-7,25.766661298828126,0.12500015052490235,26.204161298828126Q0.28124985052490237,26.641631298828123,0.7499998505249024,26.735431298828125L5.531245850524902,27.422931298828125L7.656245850524902,31.829131298828123Q7.874995850524902,32.235431298828125,8.343745850524902,32.26663129882812ZM8.343745850524902,29.797931298828125L6.687495850524902,26.422931298828125L8.343745850524902,29.797931298828125L6.687495850524902,26.422931298828125Q6.531245850524902,26.079161298828126,6.124995850524902,25.985411298828126L2.4374958505249023,25.454161298828126L5.124995850524902,22.797911298828126Q5.374995850524902,22.516661298828126,5.343745850524902,22.141661298828126L4.687495850524902,18.391661298828126L7.999995850524902,20.141661298828126Q8.343745850524902,20.329161298828126,8.687495850524902,20.141661298828126L11.968785850524903,18.391661298828126L11.343785850524903,22.141661298828126Q11.281285850524903,22.516661298828126,11.562485850524903,22.797911298828126L14.249985850524903,25.454161298828126L10.562485850524903,25.985411298828126Q10.156285850524903,26.079161298828126,9.999995850524902,26.422931298828125L8.343745850524902,29.797931298828125Z" fill="#9CA3AF" fill-opacity="1" style="mix-blend-mode:passthrough"/></g></g></g></svg>