<svg xmlns="http://www.w3.org/2000/svg" fill="none" version="1.1" width="16.508930206298828" height="16.008333206176758" viewBox="0 0 16.508930206298828 16.008333206176758"><g transform="matrix(1,0,0,-1,0,32.016666412353516)"><path d="M8.25446,32.016633206176756Q8.72321,31.985433206176758,8.94196,31.579133206176756L11.067,27.172933206176758L15.8482,26.485433206176758Q16.317,26.391633206176756,16.4732,25.95416320617676Q16.5982,25.51666320617676,16.2857,25.20416320617676L12.817,21.76666320617676L13.6295,16.891666206176758Q13.692,16.454166206176758,13.317,16.141666206176758Q12.942,15.891666206176758,12.5357,16.110416206176758L8.25446,18.39166320617676L3.97321,16.110416206176758Q3.56696,15.891666206176758,3.19196,16.172916206176758Q2.81696,16.454166206176758,2.87946,16.891666206176758L3.69196,21.76666320617676L0.223214,25.20416320617676Q-0.0892857,25.51666320617676,0.0357143,25.95416320617676Q0.191964,26.391633206176756,0.660714,26.485433206176758L5.44196,27.172933206176758L7.56696,31.579133206176756Q7.78571,31.985433206176758,8.25446,32.016633206176756ZM8.25446,29.547933206176758L6.59821,26.172933206176758L8.25446,29.547933206176758L6.59821,26.172933206176758Q6.44196,25.82916320617676,6.03571,25.73541320617676L2.34821,25.20416320617676L5.03571,22.54791320617676Q5.28571,22.26666320617676,5.25446,21.89166320617676L4.59821,18.14166320617676L7.91071,19.89166320617676Q8.25446,20.07916320617676,8.59821,19.89166320617676L11.8795,18.14166320617676L11.2545,21.89166320617676Q11.192,22.26666320617676,11.4732,22.54791320617676L14.1607,25.20416320617676L10.4732,25.73541320617676Q10.067,25.82916320617676,9.91071,26.172933206176758L8.25446,29.547933206176758Z" fill="#9CA3AF" fill-opacity="1" style="mix-blend-mode:passthrough"/></g></svg>