<svg xmlns="http://www.w3.org/2000/svg" fill="none" version="1.1" width="16.505903244018555" height="16.001562118530273" viewBox="0 0 16.505903244018555 16.001562118530273"><g transform="matrix(1,0,0,-1,0,32.00312423706055)"><path d="M9.15,31.440662118530273Q8.86875,31.971862118530275,8.24375,32.00316211853027Q7.65,31.971862118530275,7.3375,31.440662118530273L5.3375,27.315662118530273L0.8375,26.628162118530273Q0.24375,26.534362118530275,0.05625,25.97187211853027Q-0.13125,25.37812211853027,0.30625,24.94062211853027L3.55625,21.72187211853027L2.775,17.159372118530275Q2.7125,16.565625118530274,3.18125,16.190625118530274Q3.68125,15.846875118530274,4.24375,16.128125118530274L8.24375,18.253122118530275L12.275,16.128125118530274Q12.8062,15.846875118530274,13.3062,16.190625118530274Q13.8062,16.565625118530274,13.7125,17.159372118530275L12.9625,21.72187211853027L16.2125,24.94062211853027Q16.6187,25.37812211853027,16.4625,25.97187211853027Q16.2437,26.534362118530275,15.65,26.628162118530273L11.15,27.315662118530273L9.15,31.440662118530273Z" fill="#FACC15" fill-opacity="1" style="mix-blend-mode:passthrough"/></g></svg>