<svg xmlns="http://www.w3.org/2000/svg" fill="none" version="1.1" width="16" height="16" viewBox="0 0 16 16"><g transform="matrix(1,0,0,-1,0,32)"><path d="M8,16Q10.1875,16.03125,12,17.0625Q13.8125,18.125,14.9375,20Q16,21.90625,16,24Q16,26.0938,14.9375,28Q13.8125,29.875,12,30.9375Q10.1875,31.9688,8,32Q5.8125,31.9688,4,30.9375Q2.1875,29.875,1.0625,28Q0,26.0938,0,24Q0,21.90625,1.0625,20Q2.1875,18.125,4,17.0625Q5.8125,16.03125,8,16ZM5.3125,26.8438Q5.5,27.375,5.9375,27.6875Q6.375,28,6.96875,28L8.78125,28Q9.625,27.9688,10.1875,27.4062Q10.7188,26.875,10.75,26.0312Q10.7188,24.90625,9.75,24.3125L8.75,23.75Q8.6875,23.0625,8,23Q7.3125,23.0625,7.25,23.75L7.25,24.15625Q7.25,24.59375,7.625,24.8125L9,25.625Q9.25,25.75,9.25,26.0312Q9.21875,26.4688,8.78125,26.5L6.96875,26.5Q6.78125,26.5,6.71875,26.3438L6.71875,26.2812Q6.40625,25.65625,5.75,25.84375Q5.125,26.125,5.28125,26.7812L5.3125,26.8438ZM7,21Q7,21.4375,7.28125,21.71875Q7.5625,22,8,22Q8.4375,22,8.71875,21.71875Q9,21.4375,9,21Q9,20.5625,8.71875,20.28125Q8.4375,20,8,20Q7.5625,20,7.28125,20.28125Q7,20.5625,7,21Z" fill="#9CA3AF" fill-opacity="1" style="mix-blend-mode:passthrough"/></g></svg>