<svg width="51" height="50" viewBox="0 0 51 50" fill="none" xmlns="http://www.w3.org/2000/svg">
<circle cx="25.9258" cy="25" r="25" fill="#D9D9D9"/>
<path d="M27.395 8.5625L27.1411 28.9727H23.8794L23.606 8.5625H27.395ZM23.4888 35.1836C23.4888 34.5977 23.6646 34.1029 24.0161 33.6992C24.3807 33.2956 24.9146 33.0938 25.6177 33.0938C26.3078 33.0938 26.8351 33.2956 27.1997 33.6992C27.5773 34.1029 27.7661 34.5977 27.7661 35.1836C27.7661 35.7435 27.5773 36.2253 27.1997 36.6289C26.8351 37.0326 26.3078 37.2344 25.6177 37.2344C24.9146 37.2344 24.3807 37.0326 24.0161 36.6289C23.6646 36.2253 23.4888 35.7435 23.4888 35.1836Z" fill="white"/>
</svg>
