<svg width="12" height="13" viewBox="0 0 12 13" fill="none" xmlns="http://www.w3.org/2000/svg">
<path d="M9.25946 2.20234C9.55235 1.90944 10.0271 1.90944 10.32 2.20234C10.6129 2.49523 10.6129 2.97 10.32 3.26288L7.07196 6.51093L10.32 9.75898C10.6129 10.0519 10.6129 10.5276 10.32 10.8205C10.0272 11.113 9.55228 11.1131 9.25946 10.8205L6.01044 7.57148L2.76337 10.8205C2.47049 11.1134 1.99474 11.1134 1.70184 10.8205C1.40895 10.5276 1.40896 10.0519 1.70184 9.75898L4.94989 6.51093L1.70184 3.26288C1.40922 2.97007 1.4093 2.4952 1.70184 2.20234C1.99474 1.90944 2.47047 1.90944 2.76337 2.20234L6.01044 5.44941L9.25946 2.20234Z" fill="#047CFE"/>
</svg>
