<svg version="1.1" id="Layer_1" xmlns="http://www.w3.org/2000/svg" x="0px" y="0px"
	 width="100%" viewBox="0 0 1506 862" enable-background="new 0 0 1506 862" xml:space="preserve">
<path fill="#007AFF" opacity="1.000000" stroke="none"
	d="
M812.000000,1.000000
	C814.370544,1.000000 816.741150,1.000000 819.744141,1.339702
	C836.157227,3.879999 847.234253,12.252177 852.256287,27.422607
	C857.259399,42.535892 853.597900,55.975456 842.339294,67.228195
	C800.263855,109.281715 758.155273,151.302155 716.067444,193.343262
	C714.955139,194.454315 713.937927,195.660553 712.000183,197.781464
	C715.488037,197.781464 717.748352,197.781509 720.008606,197.781464
	C962.463440,197.777695 1204.918335,197.774399 1447.373169,197.761963
	C1449.536377,197.761856 1451.710449,197.756332 1453.860962,197.554459
	C1472.229370,195.830154 1489.729004,207.030029 1493.939331,224.909027
	C1496.108398,234.120056 1495.766968,244.005905 1495.909790,253.596512
	C1496.702393,306.745728 1497.314087,359.897675 1497.951660,413.049103
	C1498.784912,482.529480 1499.583008,552.010315 1500.406860,621.490784
	C1500.424683,622.986694 1500.506470,624.487427 1500.661377,625.975220
	C1501.590454,634.897644 1499.720215,643.252136 1494.852783,650.709534
	C1486.091064,664.132690 1473.312500,668.261414 1457.600952,668.247009
	C1206.147949,668.015747 954.694641,668.083130 703.241455,668.097961
	C702.043518,668.098083 700.845642,668.319153 699.039551,668.496887
	C700.658081,670.045959 701.700134,671.109741 702.810669,672.096497
	C728.221069,694.673279 753.625183,717.257263 779.059631,739.807007
	C800.254028,758.597595 821.527100,777.299561 842.687134,796.128662
	C858.193665,809.927002 860.564636,831.668396 848.521667,847.905396
	C842.357300,856.216492 833.733643,860.502563 824.000000,863.000000
	C820.307068,863.000000 816.614197,863.000000 812.196655,862.744141
	C805.338989,859.993103 799.057007,857.809021 793.094666,854.956726
	C676.575806,799.216919 560.098083,743.391052 443.603973,687.599426
	C305.492706,621.454895 167.430420,555.207336 29.169334,489.377411
	C15.596598,482.915039 5.754785,474.245850 1.000000,460.000000
	C1.000000,454.645081 1.000000,449.290131 1.339274,443.331696
	C5.116779,431.801422 11.466743,423.293365 21.793686,417.880829
	C43.023540,406.753906 64.204918,395.534149 85.381439,384.305847
	C294.946716,273.189362 504.446838,161.949677 714.131775,51.059437
	C746.515137,33.933765 777.852173,14.697255 812.000000,1.000000
M766.482117,463.840240
	C761.252869,479.964600 756.023682,496.088989 750.549133,512.969788
	C764.056885,512.969788 776.821838,513.046875 789.581299,512.818420
	C790.565674,512.800781 791.983948,510.779236 792.396301,509.441223
	C794.554382,502.439484 796.564392,495.386353 798.384705,488.289246
	C799.085388,485.557281 800.346008,484.495056 803.205994,484.533264
	C813.369263,484.669006 823.536499,484.665802 833.699890,484.534851
	C836.496521,484.498810 837.875916,485.376556 838.588135,488.184601
	C840.389465,495.286346 842.385803,502.345581 844.583618,509.333893
	C845.029419,510.751434 846.683838,512.812195 847.814941,512.834106
	C860.604980,513.082825 873.401611,512.991760 886.885071,512.991760
	C882.817444,500.681793 878.939270,489.019165 875.109436,477.340668
	C864.314026,444.421814 853.528076,411.499817 842.764648,378.570496
	C840.908264,372.891174 838.142395,368.102875 832.881592,364.663513
	C821.375366,357.141083 799.456543,360.291321 793.924072,378.921143
	C785.533081,407.176788 775.870483,435.054810 766.482117,463.840240
M1105.599609,424.577576
	C1105.674927,438.239471 1105.460938,451.910522 1105.894775,465.561035
	C1106.508057,484.852997 1115.403931,499.557190 1132.727783,508.061493
	C1153.221802,518.122009 1174.556763,518.560974 1195.646484,509.828613
	C1200.648315,507.757538 1205.559448,503.994965 1208.927490,499.752319
	C1216.308594,490.454346 1209.802612,476.392456 1197.962524,475.572998
	C1194.360962,475.323792 1190.366577,476.604889 1186.986572,478.140991
	C1179.477173,481.553802 1171.722046,482.797241 1163.625244,482.137146
	C1153.125732,481.281250 1145.269531,473.829987 1145.007446,463.386902
	C1144.585449,446.570526 1144.628296,429.729340 1145.017212,412.911163
	C1145.223511,403.980804 1150.777954,397.617371 1159.379639,395.154175
	C1167.541260,392.816956 1175.530396,393.974335 1183.339355,397.013916
	C1185.815430,397.977692 1188.301636,399.044403 1190.883667,399.580627
	C1197.251099,400.903137 1204.392090,397.657684 1207.716797,392.221375
	C1211.106934,386.678192 1211.164673,379.404846 1206.466431,374.543121
	C1202.772949,370.721100 1198.110229,367.148071 1193.188843,365.323273
	C1175.012329,358.583527 1156.549072,359.185303 1138.406616,365.732941
	C1118.775146,372.818024 1106.679688,389.750092 1105.848022,410.612366
	C1105.675537,414.939514 1105.678223,419.273590 1105.599609,424.577576
M1378.500000,513.014832
	C1388.988770,513.012207 1399.478394,513.093262 1409.966064,512.983093
	C1420.200684,512.875610 1426.266479,506.515289 1426.218872,496.197205
	C1426.172729,486.207733 1420.152832,480.180267 1409.967285,480.110382
	C1398.813110,480.033844 1387.658081,480.089752 1376.503418,480.083557
	C1369.766113,480.079834 1369.757324,480.076080 1369.756226,473.269806
	C1369.751465,442.636139 1369.743286,412.002502 1369.757690,381.368835
	C1369.760742,374.936981 1368.391602,369.084473 1362.863892,365.047699
	C1355.924683,359.980255 1348.394409,359.339600 1340.685059,362.882050
	C1332.967651,366.428131 1330.194580,372.958893 1330.212158,381.173767
	C1330.286133,415.802979 1330.230103,450.432434 1330.276367,485.061737
	C1330.280029,487.878601 1330.538574,490.717987 1330.947388,493.507568
	C1332.660767,505.204010 1337.746338,510.805237 1349.593384,512.112854
	C1358.816406,513.130859 1368.192139,512.765503 1378.500000,513.014832
M897.499390,441.499878
	C897.499329,445.162903 897.459106,448.826477 897.506409,452.488892
	C897.678284,465.801117 897.427734,479.139282 898.202148,492.417206
	C898.913025,504.603821 904.801392,510.306244 916.785522,512.222961
	C918.917908,512.564026 921.079651,512.917786 923.229065,512.925903
	C941.377319,512.994263 959.526672,513.096191 977.673828,512.951233
	C987.323730,512.874146 993.591736,505.931396 993.423340,496.088531
	C993.256531,486.339630 987.208801,480.203491 977.457947,480.122711
	C966.136658,480.028900 954.814026,480.097321 943.492004,480.087067
	C937.052368,480.081238 937.041748,480.073792 937.040466,473.447052
	C937.034424,442.644379 937.015198,411.841675 937.048035,381.039062
	C937.055176,374.335907 935.259399,368.503876 929.464539,364.563080
	C922.528442,359.846069 915.127136,359.477966 907.660461,363.030640
	C900.376282,366.496521 897.531799,372.795044 897.519775,380.559540
	C897.488831,400.539612 897.503479,420.519745 897.499390,441.499878
M1040.501709,513.009888
	C1054.663940,513.006042 1068.827148,513.104797 1082.988037,512.962402
	C1092.541992,512.866394 1098.970459,505.922485 1098.907471,496.184052
	C1098.845581,486.620514 1092.570557,480.205902 1082.971680,480.121033
	C1072.142578,480.025299 1061.312012,480.118286 1050.482178,480.082153
	C1041.247803,480.051331 1042.245239,480.981537 1042.235718,471.742188
	C1042.204346,441.418396 1042.247070,411.094543 1042.201660,380.770782
	C1042.187012,370.979767 1038.365479,365.194824 1030.130249,362.060669
	C1016.559753,356.896027 1002.954224,365.950378 1002.916931,380.398285
	C1002.826050,415.553650 1002.846130,450.709564 1002.956421,485.864838
	C1002.968811,489.824890 1003.459595,493.877228 1004.404785,497.720428
	C1006.177002,504.925751 1010.726318,510.066406 1018.174561,511.268555
	C1025.194824,512.401672 1032.386597,512.472046 1040.501709,513.009888
M1320.535278,499.773224
	C1322.019409,487.278107 1315.913452,480.148132 1303.617798,480.102203
	C1292.792480,480.061768 1281.967041,480.093628 1271.141602,480.088776
	C1264.187012,480.085663 1264.182617,480.081787 1264.180786,472.967407
	C1264.172607,441.823578 1264.256104,410.679382 1264.114258,379.536163
	C1264.062378,368.157135 1256.112671,360.803192 1244.539917,360.809937
	C1233.036743,360.816620 1225.048584,368.329468 1225.023804,379.595795
	C1224.944946,415.569183 1224.887939,451.543427 1225.061279,487.516205
	C1225.143188,504.528259 1231.926514,511.553131 1248.606323,512.853210
	C1249.933105,512.956604 1251.268433,512.991882 1252.599731,512.992737
	C1269.753784,513.003906 1286.908081,513.047424 1304.061890,512.987305
	C1313.229980,512.955139 1317.639038,509.503052 1320.535278,499.773224
M180.598679,437.389191
	C180.096039,440.329956 179.319672,443.254272 179.142212,446.214539
	C178.615051,455.008301 180.194855,457.479065 188.658508,460.014343
	C195.012817,461.917755 201.507248,463.453369 208.029327,464.670258
	C215.341522,466.034515 217.078445,463.517700 215.985626,456.113312
	C215.058533,449.831818 215.024216,443.371948 215.127121,436.999603
	C215.212189,431.731537 211.913528,427.511780 206.784821,428.005463
	C201.004364,428.561829 195.118179,429.100494 189.582108,430.699707
	C186.389633,431.621887 183.798157,434.624573 180.598679,437.389191
M264.125427,508.179779
	C265.610321,508.157379 267.122986,508.311493 268.575531,508.083252
	C276.591858,506.823608 281.029938,500.340851 279.902374,491.674347
	C278.944519,484.312164 273.926727,480.742706 265.509918,481.835968
	C261.761719,482.322815 257.755310,482.816711 254.517929,484.535248
	C252.384460,485.667847 249.951599,489.147156 250.182892,491.304413
	C251.044739,499.342682 254.891190,505.711151 264.125427,508.179779
M262.836212,389.126434
	C254.265610,394.795258 254.457916,404.013672 263.269165,408.970795
	C264.709045,409.780853 266.173004,410.597626 267.716278,411.165527
	C273.712067,413.371887 282.861176,409.463531 284.429626,404.104187
	C286.824799,395.920013 283.471863,389.708618 275.146729,388.283020
	C271.429596,387.646515 267.434113,388.635223 262.836212,389.126434
z"/>
<path fill="#FBFDFF" opacity="1.000000" stroke="none"
	d="
M766.615112,463.466736
	C775.870483,435.054810 785.533081,407.176788 793.924072,378.921143
	C799.456543,360.291321 821.375366,357.141083 832.881592,364.663513
	C838.142395,368.102875 840.908264,372.891174 842.764648,378.570496
	C853.528076,411.499817 864.314026,444.421814 875.109436,477.340668
	C878.939270,489.019165 882.817444,500.681793 886.885071,512.991760
	C873.401611,512.991760 860.604980,513.082825 847.814941,512.834106
	C846.683838,512.812195 845.029419,510.751434 844.583618,509.333893
	C842.385803,502.345581 840.389465,495.286346 838.588135,488.184601
	C837.875916,485.376556 836.496521,484.498810 833.699890,484.534851
	C823.536499,484.665802 813.369263,484.669006 803.205994,484.533264
	C800.346008,484.495056 799.085388,485.557281 798.384705,488.289246
	C796.564392,495.386353 794.554382,502.439484 792.396301,509.441223
	C791.983948,510.779236 790.565674,512.800781 789.581299,512.818420
	C776.821838,513.046875 764.056885,512.969788 750.549133,512.969788
	C756.023682,496.088989 761.252869,479.964600 766.615112,463.466736
M816.931274,421.410614
	C814.112549,431.575104 811.293823,441.739594 808.392944,452.200287
	C815.599854,452.200287 821.902649,452.200287 828.658752,452.200287
	C825.389221,440.483582 822.289490,429.375366 818.869080,417.118134
	C817.911804,419.080017 817.519409,419.884216 816.931274,421.410614
z"/>
<path fill="#FBFDFF" opacity="1.000000" stroke="none"
	d="
M1105.599854,424.091034 
	C1105.678223,419.273590 1105.675537,414.939514 1105.848022,410.612366 
	C1106.679688,389.750092 1118.775146,372.818024 1138.406616,365.732941 
	C1156.549072,359.185303 1175.012329,358.583527 1193.188843,365.323273 
	C1198.110229,367.148071 1202.772949,370.721100 1206.466431,374.543121 
	C1211.164673,379.404846 1211.106934,386.678192 1207.716797,392.221375 
	C1204.392090,397.657684 1197.251099,400.903137 1190.883667,399.580627 
	C1188.301636,399.044403 1185.815430,397.977692 1183.339355,397.013916 
	C1175.530396,393.974335 1167.541260,392.816956 1159.379639,395.154175 
	C1150.777954,397.617371 1145.223511,403.980804 1145.017212,412.911163 
	C1144.628296,429.729340 1144.585449,446.570526 1145.007446,463.386902 
	C1145.269531,473.829987 1153.125732,481.281250 1163.625244,482.137146 
	C1171.722046,482.797241 1179.477173,481.553802 1186.986572,478.140991 
	C1190.366577,476.604889 1194.360962,475.323792 1197.962524,475.572998 
	C1209.802612,476.392456 1216.308594,490.454346 1208.927490,499.752319 
	C1205.559448,503.994965 1200.648315,507.757538 1195.646484,509.828613 
	C1174.556763,518.560974 1153.221802,518.122009 1132.727783,508.061493 
	C1115.403931,499.557190 1106.508057,484.852997 1105.894775,465.561035 
	C1105.460938,451.910522 1105.674927,438.239471 1105.599854,424.091034 
z"/>
<path fill="#FAFCFF" opacity="1.000000" stroke="none" 
	d="
M1378.000000,513.014893 
	C1368.192139,512.765503 1358.816406,513.130859 1349.593384,512.112854 
	C1337.746338,510.805237 1332.660767,505.204010 1330.947388,493.507568 
	C1330.538574,490.717987 1330.280029,487.878601 1330.276367,485.061737 
	C1330.230103,450.432434 1330.286133,415.802979 1330.212158,381.173767 
	C1330.194580,372.958893 1332.967651,366.428131 1340.685059,362.882050 
	C1348.394409,359.339600 1355.924683,359.980255 1362.863892,365.047699 
	C1368.391602,369.084473 1369.760742,374.936981 1369.757690,381.368835 
	C1369.743286,412.002502 1369.751465,442.636139 1369.756226,473.269806 
	C1369.757324,480.076080 1369.766113,480.079834 1376.503418,480.083557 
	C1387.658081,480.089752 1398.813110,480.033844 1409.967285,480.110382 
	C1420.152832,480.180267 1426.172729,486.207733 1426.218872,496.197205 
	C1426.266479,506.515289 1420.200684,512.875610 1409.966064,512.983093 
	C1399.478394,513.093262 1388.988770,513.012207 1378.000000,513.014893 
z"/>
<path fill="#FCFDFF" opacity="1.000000" stroke="none" 
	d="
M897.499634,440.999878 
	C897.503479,420.519745 897.488831,400.539612 897.519775,380.559540 
	C897.531799,372.795044 900.376282,366.496521 907.660461,363.030640 
	C915.127136,359.477966 922.528442,359.846069 929.464539,364.563080 
	C935.259399,368.503876 937.055176,374.335907 937.048035,381.039062 
	C937.015198,411.841675 937.034424,442.644379 937.040466,473.447052 
	C937.041748,480.073792 937.052368,480.081238 943.492004,480.087067 
	C954.814026,480.097321 966.136658,480.028900 977.457947,480.122711 
	C987.208801,480.203491 993.256531,486.339630 993.423340,496.088531 
	C993.591736,505.931396 987.323730,512.874146 977.673828,512.951233 
	C959.526672,513.096191 941.377319,512.994263 923.229065,512.925903 
	C921.079651,512.917786 918.917908,512.564026 916.785522,512.222961 
	C904.801392,510.306244 898.913025,504.603821 898.202148,492.417206 
	C897.427734,479.139282 897.678284,465.801117 897.506409,452.488892 
	C897.459106,448.826477 897.499329,445.162903 897.499634,440.999878 
z"/>
<path fill="#FCFDFF" opacity="1.000000" stroke="none" 
	d="
M1040.002319,513.009888 
	C1032.386597,512.472046 1025.194824,512.401672 1018.174561,511.268555 
	C1010.726318,510.066406 1006.177002,504.925751 1004.404785,497.720428 
	C1003.459595,493.877228 1002.968811,489.824890 1002.956421,485.864838 
	C1002.846130,450.709564 1002.826050,415.553650 1002.916931,380.398285 
	C1002.954224,365.950378 1016.559753,356.896027 1030.130249,362.060669 
	C1038.365479,365.194824 1042.187012,370.979767 1042.201660,380.770782 
	C1042.247070,411.094543 1042.204346,441.418396 1042.235718,471.742188 
	C1042.245239,480.981537 1041.247803,480.051331 1050.482178,480.082153 
	C1061.312012,480.118286 1072.142578,480.025299 1082.971680,480.121033 
	C1092.570557,480.205902 1098.845581,486.620514 1098.907471,496.184052 
	C1098.970459,505.922485 1092.541992,512.866394 1082.988037,512.962402 
	C1068.827148,513.104797 1054.663940,513.006042 1040.002319,513.009888 
z"/>
<path fill="#FCFDFF" opacity="1.000000" stroke="none"
	d="
M1320.434326,500.172791
	C1317.639038,509.503052 1313.229980,512.955139 1304.061890,512.987305
	C1286.908081,513.047424 1269.753784,513.003906 1252.599731,512.992737
	C1251.268433,512.991882 1249.933105,512.956604 1248.606323,512.853210
	C1231.926514,511.553131 1225.143188,504.528259 1225.061279,487.516205
	C1224.887939,451.543427 1224.944946,415.569183 1225.023804,379.595795
	C1225.048584,368.329468 1233.036743,360.816620 1244.539917,360.809937
	C1256.112671,360.803192 1264.062378,368.157135 1264.114258,379.536163
	C1264.256104,410.679382 1264.172607,441.823578 1264.180786,472.967407
	C1264.182617,480.081787 1264.187012,480.085663 1271.141602,480.088776
	C1281.967041,480.093628 1292.792480,480.061768 1303.617798,480.102203
	C1315.913452,480.148132 1322.019409,487.278107 1320.434326,500.172791
z"/>
<path fill="#F7FAFC" opacity="1.000000" stroke="none" 
	d="
M180.767426,437.040039 
	C183.798157,434.624573 186.389633,431.621887 189.582108,430.699707 
	C195.118179,429.100494 201.004364,428.561829 206.784821,428.005463 
	C211.913528,427.511780 215.212189,431.731537 215.127121,436.999603 
	C215.024216,443.371948 215.058533,449.831818 215.985626,456.113312 
	C217.078445,463.517700 215.341522,466.034515 208.029327,464.670258 
	C201.507248,463.453369 195.012817,461.917755 188.658508,460.014343 
	C180.194855,457.479065 178.615051,455.008301 179.142212,446.214539 
	C179.319672,443.254272 180.096039,440.329956 180.767426,437.040039 
z"/>
<path fill="#F6F9FC" opacity="1.000000" stroke="none" 
	d="
M263.750732,508.130127 
	C254.891190,505.711151 251.044739,499.342682 250.182892,491.304413 
	C249.951599,489.147156 252.384460,485.667847 254.517929,484.535248 
	C257.755310,482.816711 261.761719,482.322815 265.509918,481.835968 
	C273.926727,480.742706 278.944519,484.312164 279.902374,491.674347 
	C281.029938,500.340851 276.591858,506.823608 268.575531,508.083252 
	C267.122986,508.311493 265.610321,508.157379 263.750732,508.130127 
z"/>
<path fill="#F5F8FC" opacity="1.000000" stroke="none"
	d="
M263.200592,389.006409
	C267.434113,388.635223 271.429596,387.646515 275.146729,388.283020
	C283.471863,389.708618 286.824799,395.920013 284.429626,404.104187
	C282.861176,409.463531 273.712067,413.371887 267.716278,411.165527
	C266.173004,410.597626 264.709045,409.780853 263.269165,408.970795
	C254.457916,404.013672 254.265610,394.795258 263.200592,389.006409
z"/>
<path fill="#1585FF" opacity="1.000000" stroke="none"
	d="
M817.029175,421.049500
	C817.519409,419.884216 817.911804,419.080017 818.869080,417.118134
	C822.289490,429.375366 825.389221,440.483582 828.658752,452.200287
	C821.902649,452.200287 815.599854,452.200287 808.392944,452.200287
	C811.293823,441.739594 814.112549,431.575104 817.029175,421.049500
z"/>
</svg>