<?xml version="1.0" encoding="UTF-8" standalone="no"?>
<svg
   version="1.1"
   id="Layer_1"
   x="0px"
   y="0px"
   width="100%"
   viewBox="740 350 700 190"
   enable-background="new 0 0 1506 862"
   xml:space="preserve"
   sodipodi:docname="logo-name-spring4.svg"
   inkscape:version="1.4.3 (0d15f75, 2025-12-25)"
   xmlns:inkscape="http://www.inkscape.org/namespaces/inkscape"
   xmlns:sodipodi="http://sodipodi.sourceforge.net/DTD/sodipodi-0.dtd"
   xmlns="http://www.w3.org/2000/svg"
   xmlns:svg="http://www.w3.org/2000/svg"><defs
   id="defs6" /><sodipodi:namedview
   id="namedview6"
   pagecolor="#505050"
   bordercolor="#ffffff"
   borderopacity="1"
   inkscape:showpageshadow="0"
   inkscape:pageopacity="0"
   inkscape:pagecheckerboard="1"
   inkscape:deskcolor="#505050"
   inkscape:zoom="0.84428571"
   inkscape:cx="399.7462"
   inkscape:cy="-17.766498"
   inkscape:window-width="1280"
   inkscape:window-height="730"
   inkscape:window-x="-6"
   inkscape:window-y="-6"
   inkscape:window-maximized="1"
   inkscape:current-layer="Layer_1" />
<path
   fill="#017AFF"
   opacity="1.000000"
   stroke="none"
   d=" M766.615112,463.466736  C775.870483,435.054810 785.533081,407.176788 793.924072,378.921143  C799.456543,360.291321 821.375366,357.141083 832.881592,364.663513  C838.142395,368.102875 840.908264,372.891174 842.764648,378.570496  C853.528076,411.499817 864.314026,444.421814 875.109436,477.340668  C878.939270,489.019165 882.817444,500.681793 886.885071,512.991760  C873.401611,512.991760 860.604980,513.082825 847.814941,512.834106  C846.683838,512.812195 845.029419,510.751434 844.583618,509.333893  C842.385803,502.345581 840.389465,495.286346 838.588135,488.184601  C837.875916,485.376556 836.496521,484.498810 833.699890,484.534851  C823.536499,484.665802 813.369263,484.669006 803.205994,484.533264  C800.346008,484.495056 799.085388,485.557281 798.384705,488.289246  C796.564392,495.386353 794.554382,502.439484 792.396301,509.441223  C791.983948,510.779236 790.565674,512.800781 789.581299,512.818420  C776.821838,513.046875 764.056885,512.969788 750.549133,512.969788  C756.023682,496.088989 761.252869,479.964600 766.615112,463.466736 M816.931274,421.410614  C814.112549,431.575104 811.293823,441.739594 808.392944,452.200287  C815.599854,452.200287 821.902649,452.200287 828.658752,452.200287  C825.389221,440.483582 822.289490,429.375366 818.869080,417.118134  C817.911804,419.080017 817.519409,419.884216 816.931274,421.410614 z"
   id="path1" />
<path
   fill="#017AFF"
   opacity="1.000000"
   stroke="none"
   d=" M897.499634,440.999878 C897.503479,420.519745 897.488831,400.539612 897.519775,380.559540 C897.531799,372.795044 900.376282,366.496521 907.660461,363.030640 C915.127136,359.477966 922.528442,359.846069 929.464539,364.563080 C935.259399,368.503876 937.055176,374.335907 937.048035,381.039062 C937.015198,411.841675 937.034424,442.644379 937.040466,473.447052 C937.041748,480.073792 937.052368,480.081238 943.492004,480.087067 C954.814026,480.097321 966.136658,480.028900 977.457947,480.122711 C987.208801,480.203491 993.256531,486.339630 993.423340,496.088531 C993.591736,505.931396 987.323730,512.874146 977.673828,512.951233 C959.526672,513.096191 941.377319,512.994263 923.229065,512.925903 C921.079651,512.917786 918.917908,512.564026 916.785522,512.222961 C904.801392,510.306244 898.913025,504.603821 898.202148,492.417206 C897.427734,479.139282 897.678284,465.801117 897.506409,452.488892 C897.459106,448.826477 897.499329,445.162903 897.499634,440.999878 z"
   id="path2" />
<path
   fill="#017AFF"
   opacity="1.000000"
   stroke="none"
   d=" M1040.002319,513.009888  C1032.386597,512.472046 1025.194824,512.401672 1018.174561,511.268555  C1010.726318,510.066406 1006.177002,504.925751 1004.404785,497.720428  C1003.459595,493.877228 1002.968811,489.824890 1002.956421,485.864838  C1002.846130,450.709564 1002.826050,415.553650 1002.916931,380.398285  C1002.954224,365.950378 1016.559753,356.896027 1030.130249,362.060669  C1038.365479,365.194824 1042.187012,370.979767 1042.201660,380.770782  C1042.247070,411.094543 1042.204346,441.418396 1042.235718,471.742188  C1042.245239,480.981537 1041.247803,480.051331 1050.482178,480.082153  C1061.312012,480.118286 1072.142578,480.025299 1082.971680,480.121033  C1092.570557,480.205902 1098.845581,486.620514 1098.907471,496.184052  C1098.970459,505.922485 1092.541992,512.866394 1082.988037,512.962402  C1068.827148,513.104797 1054.663940,513.006042 1040.002319,513.009888 z"
   id="path3" />
<path
   fill="#017AFF"
   opacity="1.000000"
   stroke="none"
   d=" M1105.599854,424.091034 C1105.678223,419.273590 1105.675537,414.939514 1105.848022,410.612366 C1106.679688,389.750092 1118.775146,372.818024 1138.406616,365.732941 C1156.549072,359.185303 1175.012329,358.583527 1193.188843,365.323273 C1198.110229,367.148071 1202.772949,370.721100 1206.466431,374.543121 C1211.164673,379.404846 1211.106934,386.678192 1207.716797,392.221375 C1204.392090,397.657684 1197.251099,400.903137 1190.883667,399.580627 C1188.301636,399.044403 1185.815430,397.977692 1183.339355,397.013916 C1175.530396,393.974335 1167.541260,392.816956 1159.379639,395.154175 C1150.777954,397.617371 1145.223511,403.980804 1145.017212,412.911163 C1144.628296,429.729340 1144.585449,446.570526 1145.007446,463.386902 C1145.269531,473.829987 1153.125732,481.281250 1163.625244,482.137146 C1171.722046,482.797241 1179.477173,481.553802 1186.986572,478.140991 C1190.366577,476.604889 1194.360962,475.323792 1197.962524,475.572998 C1209.802612,476.392456 1216.308594,490.454346 1208.927490,499.752319 C1205.559448,503.994965 1200.648315,507.757538 1195.646484,509.828613 C1174.556763,518.560974 1153.221802,518.122009 1132.727783,508.061493 C1115.403931,499.557190 1106.508057,484.852997 1105.894775,465.561035 C1105.460938,451.910522 1105.674927,438.239471 1105.599854,424.091034 z"
   id="path4" />
<path
   fill="#017AFF"
   opacity="1.000000"
   stroke="none"
   d=" M1320.434326,500.172791  C1317.639038,509.503052 1313.229980,512.955139 1304.061890,512.987305  C1286.908081,513.047424 1269.753784,513.003906 1252.599731,512.992737  C1251.268433,512.991882 1249.933105,512.956604 1248.606323,512.853210  C1231.926514,511.553131 1225.143188,504.528259 1225.061279,487.516205  C1224.887939,451.543427 1224.944946,415.569183 1225.023804,379.595795  C1225.048584,368.329468 1233.036743,360.816620 1244.539917,360.809937  C1256.112671,360.803192 1264.062378,368.157135 1264.114258,379.536163  C1264.256104,410.679382 1264.172607,441.823578 1264.180786,472.967407  C1264.182617,480.081787 1264.187012,480.085663 1271.141602,480.088776  C1281.967041,480.093628 1292.792480,480.061768 1303.617798,480.102203  C1315.913452,480.148132 1322.019409,487.278107 1320.434326,500.172791 z"
   id="path5" />
<path
   fill="#017AFF"
   opacity="1.000000"
   stroke="none"
   d=" M1378.000000,513.014893 C1368.192139,512.765503 1358.816406,513.130859 1349.593384,512.112854 C1337.746338,510.805237 1332.660767,505.204010 1330.947388,493.507568 C1330.538574,490.717987 1330.280029,487.878601 1330.276367,485.061737 C1330.230103,450.432434 1330.286133,415.802979 1330.212158,381.173767 C1330.194580,372.958893 1332.967651,366.428131 1340.685059,362.882050 C1348.394409,359.339600 1355.924683,359.980255 1362.863892,365.047699 C1368.391602,369.084473 1369.760742,374.936981 1369.757690,381.368835 C1369.743286,412.002502 1369.751465,442.636139 1369.756226,473.269806 C1369.757324,480.076080 1369.766113,480.079834 1376.503418,480.083557 C1387.658081,480.089752 1398.813110,480.033844 1409.967285,480.110382 C1420.152832,480.180267 1426.172729,486.207733 1426.218872,496.197205 C1426.266479,506.515289 1420.200684,512.875610 1409.966064,512.983093 C1399.478394,513.093262 1388.988770,513.012207 1378.000000,513.014893 z"
   id="path6" />
<path
   style="fill:#fdd5d5;stroke-width:1.09137;fill-opacity:1"
   d="m 1377.8448,373.17347 c 0.3031,-1.76897 -0.2589,-3.66276 0,-5.43824 0.022,-0.14929 0.2892,-0.1736 0.3264,-0.3199 0.079,-0.31035 -0.1036,-0.65621 0,-0.95968 0.034,-0.10112 0.2779,0.0954 0.3265,0 0.097,-0.19076 -0.097,-0.44906 0,-0.6398 0.3322,-0.6509 0.9228,-0.97389 1.3059,-1.59948 0.177,-0.28915 0.1494,-0.67054 0.3265,-0.9597 0.3959,-0.64654 1.1515,-1.01069 1.6322,-1.59948 0.1521,-0.18618 0.1545,-0.47119 0.3265,-0.63979 0.9602,-0.94083 6.2378,-4.06345 7.5087,-4.47855 0.3097,-0.10112 0.6627,0.0776 0.9794,0 1.6899,-0.41396 3.4269,-0.3199 5.2235,-0.3199 1.2879,0 2.7107,-0.0743 3.9175,0.3199 0.4236,0.13838 0.9193,0.70716 1.3059,0.95969 1.3283,0.86773 0.7968,-0.44241 2.2853,1.59949 0.4064,0.55748 0.4912,1.60591 0.6529,2.23926 0.1669,0.65428 0.5179,1.25808 0.6529,1.91938 0.7895,3.86841 -1.6248,10.22192 -3.2647,13.43566 -0.4298,0.84259 -1.5262,3.1643 -2.6116,3.51886 -0.5835,0.19056 -1.6514,0 -2.2853,0 -1.197,0 -2.3941,0 -3.5911,0 -0.3265,0 -1.2891,0.10112 -0.9794,0 1.4254,-0.4656 9.4676,-0.63975 10.7734,-0.3199 0.236,0.0578 0.4352,0.21327 0.6529,0.3199 0.3264,0.10663 0.6419,0.25377 0.9793,0.3199 0.8669,0.16988 1.4199,-0.18889 2.2853,0.3199 0.2639,0.15517 0.3776,0.5049 0.6529,0.63979 0.1946,0.0954 0.4465,-0.0674 0.653,0 0.5528,0.18058 1.8129,0.81683 2.2851,1.27959 1.4578,1.42834 1.648,3.61033 1.9589,5.43824 0.1748,1.02785 0.6927,2.44218 0.3264,3.51886 -0.2919,0.85837 -1.3578,1.2324 -1.9587,1.91938 -0.2554,0.2919 -0.3391,0.72901 -0.653,0.95969 -0.1741,0.12796 -0.4582,-0.0954 -0.6529,0 -0.2753,0.13488 -0.4067,0.45883 -0.6529,0.63979 -0.6962,0.51162 -2.1639,1.296 -2.9382,1.59948 -0.6642,0.26032 -1.5859,0.18284 -2.2852,0.3199 -0.2387,0.0468 -0.4353,0.21327 -0.6529,0.3199 -0.3266,0.10663 -0.6401,0.26446 -0.9795,0.3199 -1.8401,0.30052 -6.9753,-0.21854 -8.4881,-0.9597 -0.5431,-0.2661 -1.5435,-0.36851 -1.9587,-0.63979 -0.2561,-0.1673 -0.3969,-0.47249 -0.653,-0.63979 -0.1811,-0.1183 -0.4582,0.0954 -0.6529,0 -0.2286,-0.11201 -0.3584,-0.92842 -0.653,-0.6398 -0.036,0.0357 0.9253,3.46723 0.9794,3.83876 0.062,0.42225 -0.062,0.85734 0,1.27959 0.097,0.66762 0.518,1.25808 0.653,1.91938 0.1332,0.65274 0.5953,6.56746 0.3265,7.35762 -0.02,0.0589 -5.8686,2.42968 -6.5293,2.55917 -0.8767,0.1718 -2.0415,0 -2.9383,0 -2.2853,0 -5.6603,-0.21643 -6.8557,-2.55917 -0.097,-0.19075 0.1539,-0.48899 0,-0.63979 -0.077,-0.0754 -0.2177,0 -0.3265,0 -0.1091,-0.10663 -0.241,-0.19442 -0.3264,-0.3199 -0.451,-0.66277 -0.4252,-1.24981 -0.653,-1.91938 0.1968,-0.579 -0.5288,-0.59495 -0.6529,-0.95969 -0.1688,-0.49614 -0.1897,-3.92084 0,-4.47855 0.1127,-0.33135 0.491,-0.64233 0.6529,-0.95969 0.2256,-0.44201 0.1665,-1.12914 0.3265,-1.59948 0.048,-0.14307 0.3265,-0.1691 0.3265,-0.3199 0,-0.1508 -0.1726,-0.31989 -0.3265,-0.31989 -0.665,0 -1.344,0.48917 -1.9587,0.63979 -0.9771,0.23933 -1.9368,0.21086 -2.9382,0.31989 -1.6801,0.18291 -8.4814,0.74862 -9.794,0.3199 -1.1641,-0.38023 -1.6023,-1.02713 -2.2852,-1.91938 -1.7685,-2.31042 -1.6324,-1.73357 -1.6324,-4.47855 0,-0.42652 -0.1376,-0.87495 0,-1.27959 0.034,-0.10112 0.2496,0.0754 0.3264,0 0.3442,-0.33719 0.3089,-0.94238 0.6531,-1.27958 0.077,-0.0754 0.2495,0.0754 0.3264,0 0.172,-0.1686 0.1744,-0.45361 0.3265,-0.6398 0.086,-0.10587 4.0581,-3.74771 4.244,-3.83876 0.1947,-0.0954 0.4582,0.0954 0.6529,0 0.7406,-0.3628 1.2598,-0.76586 1.9589,-1.27958 0.1163,-0.78583 0.693,-0.13285 0.9793,-0.3199 1.0948,-0.71519 0.2161,-0.63979 0.9794,-0.63979 0.3264,0 0.6529,0 0.9794,0 0.1091,0 0.3264,0.10663 0.3264,0 0,-0.3016 -0.5555,-0.35367 -0.6529,-0.63979 -0.2274,-0.66873 -0.1854,-1.23233 -0.6529,-1.91938 -0.061,-0.0887 -0.2495,0.0754 -0.3265,0 -0.3441,-0.33721 -0.5349,-0.81695 -0.6529,-1.27958 -0.053,-0.20691 0.097,-0.44906 0,-0.6398 -0.6293,-0.61665 -0.67,-0.52163 -0.9793,-1.27958 -0.4234,-1.03716 -0.1674,-0.98354 -0.3265,-1.91938 -0.4754,-2.79469 -0.031,0.085 -0.9795,-2.23928 -0.2499,-0.61229 -0.5474,-7.77107 -0.3264,-8.6372 0.3261,-1.27819 0.329,-0.005 0.9793,-1.2796 0.097,-0.19074 -0.1207,-0.46234 0,-0.63978 0.1351,-0.1984 0.481,-0.1513 0.6531,-0.3199 0.077,-0.0754 -0.065,-0.2346 0,-0.3199 0.4549,-0.59444 1.9686,-2.24413 2.6116,-2.55918 1.7665,-0.86541 3.5245,-0.83238 5.2235,0 0.8041,0.39395 -0.2947,-0.92857 0.9794,0.3199 0.3975,0.38964 0.1529,0.71472 0.6529,0.95969 0.565,0.27686 1.5586,0.94597 1.9588,1.59949 0.5399,0.88173 1.4552,2.15803 1.6323,3.19896 0.4458,2.62052 0.195,4.6678 0.9794,7.35762 z"
   id="path7" /><ellipse
   style="fill:#fdd5d5;fill-opacity:1"
   id="path8"
   cx="1368.9258"
   cy="370.36221"
   rx="12.301085"
   ry="12.929226" /><ellipse
   style="fill:#fdd5d5;fill-opacity:1"
   id="path9"
   cx="1392.5333"
   cy="367.53558"
   rx="14.447232"
   ry="14.080817" /><ellipse
   style="fill:#fdd5d5;fill-opacity:1"
   id="path10"
   cx="1396.5461"
   cy="388.79019"
   rx="16.508038"
   ry="11.696278" /><ellipse
   style="fill:#fdd5d5;fill-opacity:1"
   id="path11"
   cx="1364.5664"
   cy="392.63959"
   rx="13.102792"
   ry="10.807953" /><ellipse
   style="fill:#fdd5d5;fill-opacity:1"
   id="path12"
   cx="1382.3329"
   cy="401.44882"
   rx="13.3989"
   ry="11.622251" /><ellipse
   style="fill:#fdd5d5;fill-opacity:1"
   id="path13"
   cx="866.8844"
   cy="375.33499"
   rx="12.981571"
   ry="13.190951" /><ellipse
   style="fill:#fdd5d5;fill-opacity:1"
   id="path14"
   cx="849.08704"
   cy="370.93802"
   rx="12.562811"
   ry="12.772191" /><ellipse
   style="fill:#fdd5d5;fill-opacity:1"
   id="path15"
   cx="838.40869"
   cy="387.47906"
   rx="14.237852"
   ry="11.51591" /><ellipse
   style="fill:#fdd5d5;fill-opacity:1"
   id="path16"
   cx="852.12311"
   cy="396.27301"
   rx="12.876881"
   ry="13.400331" /><ellipse
   style="fill:#fdd5d5;fill-opacity:1"
   id="path17"
   cx="867.30316"
   cy="389.99161"
   rx="12.772191"
   ry="13.609712" /><ellipse
   style="fill:#fdd5d5;fill-opacity:1"
   id="path18"
   cx="854.11218"
   cy="382.76801"
   rx="5.653265"
   ry="7.014236" /><ellipse
   style="fill:#fdd5d5;fill-opacity:1"
   id="path19"
   cx="851.39026"
   cy="400.25125"
   rx="10.67839"
   ry="11.72529" /><ellipse
   style="fill:#fdd5d5;fill-opacity:1"
   id="path20"
   cx="870.6532"
   cy="392.60886"
   rx="12.562811"
   ry="12.03936" /><circle
   style="fill:#fdd5d5;fill-opacity:1"
   id="path21"
   cx="869.71106"
   cy="372.50836"
   r="11.6206" /><ellipse
   style="fill:#f7a1a1;fill-opacity:1"
   id="path22"
   cx="856.20599"
   cy="384.75711"
   rx="5.8626451"
   ry="6.0720253" /><ellipse
   style="fill:#f7a1a1;fill-opacity:1"
   id="path23"
   cx="1384.2628"
   cy="384.6524"
   rx="5.4438848"
   ry="5.1298146" /><ellipse
   style="fill:#fdd5d5;stroke-width:0.863486;fill-opacity:1"
   id="path24"
   ry="12.679103"
   rx="26.172428"
   cy="-890.79083"
   cx="-763.24585"
   transform="matrix(-0.83783264,0.54592716,-0.34790205,-0.93753089,0,0)" /><ellipse
   style="fill:#fdd5d5;stroke-width:0.837931;fill-opacity:1"
   id="path24-9"
   ry="11.30653"
   rx="27.638186"
   cy="-993.68298"
   cx="-944.28442"
   transform="rotate(153.81539)" /><ellipse
   style="fill:#fdd5d5;stroke-width:0.916093;fill-opacity:1"
   id="path24-9-8"
   ry="14.237641"
   rx="26.233925"
   cy="-1147.9944"
   cx="-964.74292"
   transform="matrix(-0.78109691,0.62440981,-0.28951721,-0.95717281,0,0)" /></svg>
