<svg version="1.1" id="Layer_1" xmlns="http://www.w3.org/2000/svg" x="0px" y="0px"
	 width="100%" viewBox="740 350 700 190" enable-background="new 0 0 1506 862" xml:space="preserve">
<path fill="#017AFF" opacity="1.000000" stroke="none"
	d="
M766.615112,463.466736
	C775.870483,435.054810 785.533081,407.176788 793.924072,378.921143
	C799.456543,360.291321 821.375366,357.141083 832.881592,364.663513
	C838.142395,368.102875 840.908264,372.891174 842.764648,378.570496
	C853.528076,411.499817 864.314026,444.421814 875.109436,477.340668
	C878.939270,489.019165 882.817444,500.681793 886.885071,512.991760
	C873.401611,512.991760 860.604980,513.082825 847.814941,512.834106
	C846.683838,512.812195 845.029419,510.751434 844.583618,509.333893
	C842.385803,502.345581 840.389465,495.286346 838.588135,488.184601
	C837.875916,485.376556 836.496521,484.498810 833.699890,484.534851
	C823.536499,484.665802 813.369263,484.669006 803.205994,484.533264
	C800.346008,484.495056 799.085388,485.557281 798.384705,488.289246
	C796.564392,495.386353 794.554382,502.439484 792.396301,509.441223
	C791.983948,510.779236 790.565674,512.800781 789.581299,512.818420
	C776.821838,513.046875 764.056885,512.969788 750.549133,512.969788
	C756.023682,496.088989 761.252869,479.964600 766.615112,463.466736
M816.931274,421.410614
	C814.112549,431.575104 811.293823,441.739594 808.392944,452.200287
	C815.599854,452.200287 821.902649,452.200287 828.658752,452.200287
	C825.389221,440.483582 822.289490,429.375366 818.869080,417.118134
	C817.911804,419.080017 817.519409,419.884216 816.931274,421.410614
z"/>
<path fill="#017AFF" opacity="1.000000" stroke="none"
	  d="
M897.499634,440.999878
C897.503479,420.519745 897.488831,400.539612 897.519775,380.559540
C897.531799,372.795044 900.376282,366.496521 907.660461,363.030640
C915.127136,359.477966 922.528442,359.846069 929.464539,364.563080
C935.259399,368.503876 937.055176,374.335907 937.048035,381.039062
C937.015198,411.841675 937.034424,442.644379 937.040466,473.447052
C937.041748,480.073792 937.052368,480.081238 943.492004,480.087067
C954.814026,480.097321 966.136658,480.028900 977.457947,480.122711
C987.208801,480.203491 993.256531,486.339630 993.423340,496.088531
C993.591736,505.931396 987.323730,512.874146 977.673828,512.951233
C959.526672,513.096191 941.377319,512.994263 923.229065,512.925903
C921.079651,512.917786 918.917908,512.564026 916.785522,512.222961
C904.801392,510.306244 898.913025,504.603821 898.202148,492.417206
C897.427734,479.139282 897.678284,465.801117 897.506409,452.488892
C897.459106,448.826477 897.499329,445.162903 897.499634,440.999878
z"/>
<path fill="#017AFF" opacity="1.000000" stroke="none"
	d="
M1040.002319,513.009888
	C1032.386597,512.472046 1025.194824,512.401672 1018.174561,511.268555
	C1010.726318,510.066406 1006.177002,504.925751 1004.404785,497.720428
	C1003.459595,493.877228 1002.968811,489.824890 1002.956421,485.864838
	C1002.846130,450.709564 1002.826050,415.553650 1002.916931,380.398285
	C1002.954224,365.950378 1016.559753,356.896027 1030.130249,362.060669
	C1038.365479,365.194824 1042.187012,370.979767 1042.201660,380.770782
	C1042.247070,411.094543 1042.204346,441.418396 1042.235718,471.742188
	C1042.245239,480.981537 1041.247803,480.051331 1050.482178,480.082153
	C1061.312012,480.118286 1072.142578,480.025299 1082.971680,480.121033
	C1092.570557,480.205902 1098.845581,486.620514 1098.907471,496.184052
	C1098.970459,505.922485 1092.541992,512.866394 1082.988037,512.962402
	C1068.827148,513.104797 1054.663940,513.006042 1040.002319,513.009888
z"/>
<path fill="#017AFF" opacity="1.000000" stroke="none"
		  d="
M1105.599854,424.091034
C1105.678223,419.273590 1105.675537,414.939514 1105.848022,410.612366
C1106.679688,389.750092 1118.775146,372.818024 1138.406616,365.732941
C1156.549072,359.185303 1175.012329,358.583527 1193.188843,365.323273
C1198.110229,367.148071 1202.772949,370.721100 1206.466431,374.543121
C1211.164673,379.404846 1211.106934,386.678192 1207.716797,392.221375
C1204.392090,397.657684 1197.251099,400.903137 1190.883667,399.580627
C1188.301636,399.044403 1185.815430,397.977692 1183.339355,397.013916
C1175.530396,393.974335 1167.541260,392.816956 1159.379639,395.154175
C1150.777954,397.617371 1145.223511,403.980804 1145.017212,412.911163
C1144.628296,429.729340 1144.585449,446.570526 1145.007446,463.386902
C1145.269531,473.829987 1153.125732,481.281250 1163.625244,482.137146
C1171.722046,482.797241 1179.477173,481.553802 1186.986572,478.140991
C1190.366577,476.604889 1194.360962,475.323792 1197.962524,475.572998
C1209.802612,476.392456 1216.308594,490.454346 1208.927490,499.752319
C1205.559448,503.994965 1200.648315,507.757538 1195.646484,509.828613
C1174.556763,518.560974 1153.221802,518.122009 1132.727783,508.061493
C1115.403931,499.557190 1106.508057,484.852997 1105.894775,465.561035
C1105.460938,451.910522 1105.674927,438.239471 1105.599854,424.091034
z"/>
<path fill="#017AFF" opacity="1.000000" stroke="none"
	d="
M1320.434326,500.172791
	C1317.639038,509.503052 1313.229980,512.955139 1304.061890,512.987305
	C1286.908081,513.047424 1269.753784,513.003906 1252.599731,512.992737
	C1251.268433,512.991882 1249.933105,512.956604 1248.606323,512.853210
	C1231.926514,511.553131 1225.143188,504.528259 1225.061279,487.516205
	C1224.887939,451.543427 1224.944946,415.569183 1225.023804,379.595795
	C1225.048584,368.329468 1233.036743,360.816620 1244.539917,360.809937
	C1256.112671,360.803192 1264.062378,368.157135 1264.114258,379.536163
	C1264.256104,410.679382 1264.172607,441.823578 1264.180786,472.967407
	C1264.182617,480.081787 1264.187012,480.085663 1271.141602,480.088776
	C1281.967041,480.093628 1292.792480,480.061768 1303.617798,480.102203
	C1315.913452,480.148132 1322.019409,487.278107 1320.434326,500.172791
z"/>
<path fill="#017AFF" opacity="1.000000" stroke="none"
		  d="
M1378.000000,513.014893
C1368.192139,512.765503 1358.816406,513.130859 1349.593384,512.112854
C1337.746338,510.805237 1332.660767,505.204010 1330.947388,493.507568
C1330.538574,490.717987 1330.280029,487.878601 1330.276367,485.061737
C1330.230103,450.432434 1330.286133,415.802979 1330.212158,381.173767
C1330.194580,372.958893 1332.967651,366.428131 1340.685059,362.882050
C1348.394409,359.339600 1355.924683,359.980255 1362.863892,365.047699
C1368.391602,369.084473 1369.760742,374.936981 1369.757690,381.368835
C1369.743286,412.002502 1369.751465,442.636139 1369.756226,473.269806
C1369.757324,480.076080 1369.766113,480.079834 1376.503418,480.083557
C1387.658081,480.089752 1398.813110,480.033844 1409.967285,480.110382
C1420.152832,480.180267 1426.172729,486.207733 1426.218872,496.197205
C1426.266479,506.515289 1420.200684,512.875610 1409.966064,512.983093
C1399.478394,513.093262 1388.988770,513.012207 1378.000000,513.014893
z"/>
</svg>